<svg width="419" height="203" viewBox="0 0 419 203" fill="none" xmlns="http://www.w3.org/2000/svg">
<g clip-path="url(#clip0_21_47)">
<path d="M181.19 89.76C175.701 93.8181 169.014 95.9295 162.19 95.76C155.624 95.865 149.258 93.4945 144.36 89.12C141.782 86.7999 139.77 83.9193 138.48 80.7C136.954 76.9352 136.203 72.9016 136.27 68.84C136.225 64.6586 137.017 60.5106 138.6 56.64C139.971 53.1934 142.093 50.0952 144.81 47.57C149.901 42.8365 156.619 40.244 163.57 40.33C168.472 40.2138 173.323 41.3423 177.67 43.61V56.06H171.42L170.05 48.13C169.03 47.0233 166.92 46.4667 163.72 46.46C157.673 46.46 152.92 48.5667 149.46 52.78C146 56.9933 144.273 62.2933 144.28 68.68C144.28 75.06 146.07 80.1433 149.65 83.93C151.386 85.7876 153.497 87.2548 155.844 88.2341C158.19 89.2134 160.718 89.6824 163.26 89.61C165.869 89.6082 168.463 89.2241 170.96 88.47C172.93 87.94 174.827 87.171 176.61 86.18L178.45 85L181.19 89.76Z" fill="black"/>
<path d="M206.5 95H186.45V91.67L192.85 89.15V61.93H186.45V57.36C188.608 56.353 190.969 55.8569 193.35 55.91C195.97 55.91 197.73 56.53 198.65 57.78C199.677 59.4878 200.149 61.4725 200 63.46V89.15L206.48 91.67L206.5 95ZM200.33 47.19C199.341 48.1931 198.035 48.8217 196.634 48.9686C195.233 49.1156 193.825 48.7716 192.65 47.9955C191.474 47.2195 190.605 46.0594 190.19 44.7135C189.775 43.3676 189.84 41.9194 190.374 40.6161C190.908 39.3129 191.878 38.2355 193.118 37.568C194.359 36.9005 195.792 36.6843 197.174 36.9562C198.556 37.2282 199.801 37.9716 200.695 39.0593C201.59 40.147 202.08 41.5116 202.08 42.92C202.087 43.705 201.936 44.4834 201.636 45.2086C201.335 45.9337 200.891 46.5907 200.33 47.14V47.19Z" fill="black"/>
<path d="M257.2 95H237.2V91.67L243.3 89.15V70.93C243.3 67.93 242.8 65.7 241.81 64.22C240.82 62.74 239 62 236.39 62C234.279 62.0227 232.195 62.4782 230.267 63.3382C228.339 64.1982 226.607 65.4445 225.18 67V89.15L231.66 91.67V95H211.66V91.67L218.06 89.15V61.93H211.66V57.36C213.778 56.3615 216.098 55.8653 218.44 55.91C220.98 55.91 222.73 56.47 223.67 57.59C224.719 59.0433 225.266 60.7982 225.23 62.59C226.184 61.4371 227.256 60.3879 228.43 59.46C231.34 57.1079 234.978 55.8421 238.72 55.88C242.593 55.88 245.517 56.9867 247.49 59.2C249.49 61.41 250.49 64.42 250.49 68.2V89.15L257.27 91.67L257.2 95Z" fill="black"/>
<path d="M281.37 95.71C275.63 95.71 270.963 94.07 267.37 90.79C263.777 87.51 261.987 82.72 262 76.42C262 70.12 263.83 65.12 267.49 61.42C269.131 59.668 271.115 58.2729 273.319 57.3215C275.523 56.37 277.899 55.8828 280.3 55.89C291.887 55.89 297.683 62.7533 297.69 76.48H269.4V76.86C269.368 78.5642 269.69 80.2564 270.346 81.8296C271.002 83.4029 271.977 84.8229 273.21 86C275.75 88.4867 279.207 89.73 283.58 89.73C285.38 89.7432 287.175 89.5247 288.92 89.08C290.194 88.8041 291.426 88.3567 292.58 87.75L293.65 87.14L295.86 91.14C295.7 91.25 295.49 91.41 295.21 91.64C294.64 92.052 294.042 92.423 293.42 92.75C292.451 93.2726 291.449 93.7303 290.42 94.12C287.532 95.2195 284.46 95.7591 281.37 95.71ZM287.51 64.41C285.581 62.7155 283.075 61.8275 280.51 61.93C277.921 61.83 275.386 62.6881 273.39 64.34C271.5 65.94 270.28 68.34 269.73 71.62H290.6C290.535 68.9089 289.428 66.3269 287.51 64.41Z" fill="black"/>
<path d="M181.19 153.9C175.699 157.955 169.014 160.066 162.19 159.9C155.625 160.009 149.259 157.642 144.36 153.27C141.782 150.946 139.77 148.062 138.48 144.84C136.959 141.081 136.211 137.054 136.28 133C136.235 128.819 137.027 124.671 138.61 120.8C139.978 117.351 142.099 114.252 144.82 111.73C149.91 106.994 156.628 104.398 163.58 104.48C168.481 104.369 173.331 105.497 177.68 107.76V120.2H171.43L170.06 112.27C169.04 111.15 166.93 110.59 163.73 110.59C157.683 110.59 152.93 112.7 149.47 116.92C146.01 121.14 144.283 126.44 144.29 132.82C144.29 139.2 146.08 144.283 149.66 148.07C151.399 149.924 153.511 151.389 155.857 152.368C158.202 153.347 160.729 153.818 163.27 153.75C165.879 153.745 168.473 153.357 170.97 152.6C172.943 152.079 174.841 151.31 176.62 150.31L178.45 149.17L181.19 153.9Z" fill="black"/>
<path d="M220.3 154.39C216.493 157.944 211.478 159.921 206.27 159.921C201.062 159.921 196.047 157.944 192.24 154.39C188.533 150.71 186.68 145.92 186.68 140.02C186.68 134.12 188.533 129.317 192.24 125.61C196.038 122.038 201.056 120.049 206.27 120.049C211.484 120.049 216.502 122.038 220.3 125.61C224.007 129.317 225.863 134.12 225.87 140.02C225.877 145.92 224.02 150.71 220.3 154.39ZM197.51 150.2C198.65 151.371 200.012 152.302 201.518 152.938C203.023 153.573 204.641 153.901 206.275 153.901C207.909 153.901 209.527 153.573 211.032 152.938C212.537 152.302 213.9 151.371 215.04 150.2C217.333 147.74 218.477 144.423 218.47 140.25C218.636 136.52 217.398 132.863 215 130C213.911 128.756 212.569 127.758 211.063 127.075C209.558 126.392 207.923 126.039 206.27 126.039C204.617 126.039 202.982 126.392 201.477 127.075C199.971 127.758 198.629 128.756 197.54 130C195.155 132.858 193.918 136.501 194.07 140.22C194.07 144.413 195.217 147.74 197.51 150.2Z" fill="black"/>
<path d="M261 131.86H256.2L255.13 128.05C253.797 126.777 251.763 126.143 249.03 126.15C246.859 126.046 244.69 126.407 242.67 127.21C241.17 127.93 240.42 128.88 240.42 130.07C240.445 130.717 240.608 131.352 240.898 131.931C241.188 132.51 241.597 133.021 242.1 133.43C243.102 134.394 244.262 135.178 245.53 135.75C246.69 136.26 248.78 137.02 251.78 138.04C254.472 138.876 256.973 140.236 259.14 142.04C260.077 142.865 260.818 143.888 261.311 145.034C261.804 146.181 262.036 147.423 261.99 148.67C262.081 150.286 261.762 151.899 261.063 153.359C260.364 154.819 259.307 156.078 257.99 157.02C255.324 158.927 252.117 159.929 248.84 159.88C245.841 159.948 242.852 159.508 240 158.58C238.105 158.01 236.314 157.135 234.7 155.99L233.18 154.7V146.54H237.75L239.35 151.27C239.35 151.42 239.81 151.67 240.57 152.03C242.779 153.204 245.238 153.832 247.74 153.86C249.635 153.97 251.526 153.588 253.23 152.75C253.808 152.462 254.294 152.016 254.63 151.464C254.966 150.912 255.139 150.276 255.13 149.63C255.081 148.871 254.865 148.132 254.497 147.466C254.129 146.8 253.617 146.225 253 145.78C250.865 144.215 248.442 143.087 245.87 142.46C242.802 141.606 239.945 140.125 237.48 138.11C236.444 137.33 235.6 136.324 235.013 135.168C234.425 134.012 234.109 132.737 234.09 131.44C234.09 127.633 235.423 124.777 238.09 122.87C241.145 120.849 244.761 119.848 248.42 120.01C250.53 120.011 252.631 120.266 254.68 120.77C256.297 121.13 257.877 121.639 259.4 122.29L261 123.06V131.86Z" fill="black"/>
<path d="M338.78 159.08H318.78V155.8L324.88 153.29V135.07C324.88 132.07 324.383 129.833 323.39 128.36C322.39 126.88 320.61 126.15 318.02 126.15C316.074 126.121 314.143 126.491 312.345 127.237C310.548 127.984 308.923 129.091 307.57 130.49C307.723 131.115 307.8 131.756 307.8 132.4V153.29L314.59 155.8V159.08H294.48V155.8L300.58 153.29V135.07C300.58 132.07 300.087 129.833 299.1 128.36C298.1 126.88 296.31 126.15 293.72 126.15C291.613 126.169 289.532 126.618 287.605 127.469C285.677 128.32 283.944 129.556 282.51 131.1V153.29L289 155.8V159.08H268.94V155.8L275.35 153.29V126.07H268.94V121.5C271.062 120.502 273.385 120.006 275.73 120.05C278.27 120.05 280.01 120.607 280.95 121.72C281.997 123.174 282.544 124.929 282.51 126.72C283.465 125.565 284.541 124.515 285.72 123.59C288.578 121.249 292.165 119.982 295.86 120.01C301.447 120.01 305.113 122.247 306.86 126.72C310.573 122.24 314.993 120.003 320.12 120.01C324.12 120.01 327.093 121.113 329.04 123.32C331.04 125.53 332.04 128.55 332.04 132.32V153.21L338.82 155.72L338.78 159.08Z" fill="black"/>
<path d="M377.13 154.39C373.323 157.944 368.308 159.921 363.1 159.921C357.892 159.921 352.877 157.944 349.07 154.39C345.363 150.71 343.51 145.92 343.51 140.02C343.51 134.12 345.363 129.317 349.07 125.61C352.868 122.038 357.886 120.049 363.1 120.049C368.314 120.049 373.332 122.038 377.13 125.61C380.837 129.317 382.693 134.12 382.7 140.02C382.707 145.92 380.85 150.71 377.13 154.39ZM354.33 150.2C355.47 151.371 356.834 152.303 358.34 152.938C359.847 153.574 361.465 153.902 363.1 153.902C364.735 153.902 366.353 153.574 367.86 152.938C369.366 152.303 370.729 151.371 371.87 150.2C374.163 147.74 375.307 144.423 375.3 140.25C375.459 136.521 374.222 132.866 371.83 130C370.741 128.756 369.399 127.758 367.893 127.075C366.388 126.392 364.753 126.039 363.1 126.039C361.447 126.039 359.812 126.392 358.307 127.075C356.801 127.758 355.459 128.756 354.37 130C351.985 132.858 350.749 136.501 350.9 140.22C350.9 144.413 352.043 147.74 354.33 150.2Z" fill="black"/>
<path d="M417.84 131.86H413L412 128.05C410.667 126.777 408.633 126.143 405.9 126.15C403.729 126.045 401.56 126.407 399.54 127.21C398.04 127.93 397.29 128.88 397.29 130.07C397.316 130.716 397.478 131.349 397.766 131.928C398.054 132.507 398.461 133.019 398.96 133.43C399.967 134.392 401.131 135.176 402.4 135.75C403.56 136.26 405.65 137.02 408.65 138.04C411.34 138.874 413.839 140.234 416 142.04C416.94 142.863 417.684 143.885 418.179 145.032C418.673 146.179 418.906 147.422 418.86 148.67C418.951 150.286 418.632 151.899 417.933 153.359C417.234 154.819 416.177 156.078 414.86 157.02C412.194 158.927 408.987 159.929 405.71 159.88C402.711 159.948 399.722 159.508 396.87 158.58C394.975 158.01 393.185 157.135 391.57 155.99L390 154.74V146.58H394.58L396.18 151.31C396.23 151.46 396.64 151.71 397.4 152.07C399.609 153.244 402.068 153.872 404.57 153.9C406.465 154.005 408.355 153.623 410.06 152.79C410.638 152.502 411.124 152.056 411.46 151.504C411.796 150.952 411.969 150.316 411.96 149.67C411.911 148.911 411.695 148.172 411.327 147.506C410.959 146.84 410.447 146.265 409.83 145.82C407.695 144.255 405.272 143.127 402.7 142.5C399.632 141.646 396.775 140.165 394.31 138.15C393.274 137.37 392.43 136.364 391.843 135.208C391.255 134.052 390.94 132.777 390.92 131.48C390.92 127.673 392.253 124.817 394.92 122.91C397.975 120.889 401.591 119.888 405.25 120.05C407.356 120.051 409.455 120.306 411.5 120.81C413.121 121.168 414.704 121.677 416.23 122.33L417.83 123.1L417.84 131.86Z" fill="black"/>
<path d="M28.8199 95.45C28.9937 95.4173 29.1518 95.3279 29.2694 95.1958C29.387 95.0637 29.4575 94.8964 29.4699 94.72C29.4699 94.59 29.1799 94.4 28.8099 94.37C28.7446 94.3311 28.6701 94.3102 28.5941 94.3095C28.5181 94.3087 28.4433 94.3282 28.3772 94.3658C28.3111 94.4034 28.2562 94.4578 28.218 94.5236C28.1799 94.5893 28.1598 94.664 28.1599 94.74C28.2199 95.11 28.4899 95.5 28.8199 95.45Z" fill="#8E3F38"/>
<path d="M8.30992 151.45C10.4936 148.966 11.7668 145.813 11.9199 142.51L11.3399 142.85C11.0857 143.706 10.6505 144.497 10.0639 145.17C9.47732 145.843 8.75297 146.381 7.93992 146.75C8.65935 146.685 9.34788 146.427 9.93242 146.003C10.517 145.579 10.9757 145.004 11.2599 144.34C11.1999 144.6 10.7199 147.12 7.66992 151.34C7.66992 151.33 7.75992 152 8.30992 151.45Z" fill="#8E3F38"/>
<path d="M39.1999 146.41C40.1635 146.47 41.0867 146.819 41.8499 147.41L42.4299 147.05C41.2899 146.29 39.6899 145.65 38.4299 146.49V146.55C38.6776 146.463 38.9375 146.416 39.1999 146.41Z" fill="#8E3F38"/>
<path d="M47.6299 151.93C46.9819 151.925 46.3572 151.687 45.8699 151.26L45.2999 151.61C45.7921 152.036 46.4192 152.273 47.0699 152.28L47.6299 151.93Z" fill="#8E3F38"/>
<path d="M63.6399 69.42C63.6399 69.12 63.4399 69.06 63.1999 69.29C59.8299 72.5 53.8499 72.6 49.7499 71.21C49.6001 71.1671 49.4406 71.172 49.2936 71.224C49.1466 71.276 49.0195 71.3724 48.9299 71.5C53.5699 73 61.0999 73.44 63.6399 69.42Z" fill="#8E3F38"/>
<path d="M60.1199 67.61C58.9599 69.09 52.4399 70.61 49.2999 70.18C48.3899 70.06 48.5999 70.46 48.5999 70.46C49.5614 70.808 50.5775 70.9808 51.5999 70.97C52.9735 71.36 54.4322 71.3321 55.7899 70.89C55.1799 70.89 54.1699 70.89 53.3299 70.82C55.7499 70.36 58.9999 69.07 60.1199 67.61Z" fill="#8E3F38"/>
<path d="M14.4799 67.39C13.0499 65.25 9.73992 64.81 8.41992 64.47C10.547 65.2033 12.5809 66.1833 14.4799 67.39Z" fill="#8E3F38"/>
<path d="M38.7799 76.49C39.4399 76.86 39.9699 75.96 39.9599 75.33C39.9599 74.89 39.3999 74.12 38.7399 74.24C38.0699 74.53 37.5199 74.78 37.5299 75.8C37.5372 75.9428 37.5807 76.0814 37.6565 76.2026C37.7323 76.3239 37.8377 76.4238 37.9629 76.4929C38.0881 76.562 38.2288 76.598 38.3718 76.5975C38.5148 76.597 38.6552 76.56 38.7799 76.49Z" fill="#8E3F38"/>
<path d="M33.0799 50.77C32.7019 50.8597 32.308 50.8597 31.9299 50.77C33.0399 52.22 34.0199 51.17 34.0199 51.17C34.5299 50.49 33.0799 50.77 33.0799 50.77Z" fill="#8E3F38"/>
<path d="M24.36 53.36L23.96 53.68C23.96 53.68 23.31 53.5 23.76 54.21C23.76 54.21 24.43 55.32 24.94 55.12C24.94 55.12 25.39 55.01 24.84 54.55C24.84 54.55 25 53.57 24.36 53.36Z" fill="#8E3F38"/>
<path d="M61.07 25.25C60.38 26.11 57.53 29.88 56.76 30.88C56.2099 31.5369 55.5287 32.0717 54.76 32.45C54.7 32.5 54.21 32.88 55.3 33.45C55.8473 33.768 56.3542 34.1507 56.81 34.59C57.81 35.49 57.93 34.49 57.97 34.25C57.9659 33.5191 58.1301 32.7972 58.45 32.14C59.65 30.35 60.86 28.56 62.05 26.76C62.22 26.76 62.12 27.83 62.05 28.22C61.91 29.47 61.24 35.93 61.05 37.89C61.0173 38.0449 61.0219 38.2052 61.0633 38.358C61.1048 38.5107 61.1818 38.6515 61.2883 38.7686C61.3947 38.8857 61.5274 38.976 61.6754 39.0318C61.8235 39.0877 61.9827 39.1076 62.14 39.09L62.49 38.83C62.84 38.23 62.85 37.4 63.22 36.77C63.35 36.54 63.56 36.36 63.71 36.14C65.2566 34.32 66.79 32.49 68.31 30.65C68.6669 30.1069 69.2178 29.7206 69.85 29.57L70.68 29.25C70.84 29.1 70.89 28.89 70.61 28.57C70.01 27.9 69.14 27.5 68.61 26.73C68.4576 26.534 68.2531 26.385 68.02 26.3C68.02 26.3 67.23 26.18 67.54 27.19C67.6599 27.914 67.5028 28.6566 67.1 29.27L65.1 32.22C64.84 31.83 65.34 27.5 65.42 26.16C65.42 25.35 65.74 24.16 65.11 23.56C64.2946 22.7996 63.3795 22.1537 62.39 21.64L61.95 21.86C61.8453 22.0952 61.8106 22.3556 61.85 22.61C61.8417 23.0312 61.7881 23.4503 61.69 23.86C61.5819 24.3613 61.3707 24.8346 61.07 25.25Z" fill="#8E3F38"/>
<path d="M95.14 72.24C94.767 72.2155 94.3929 72.2155 94.02 72.24L93.83 72.31C94.59 72.27 95.09 72.26 95.14 72.24Z" fill="#8E3F38"/>
<path d="M83.4899 72.91C83.7204 73.5194 83.9075 74.1443 84.0499 74.78C84.1399 75.13 84.5199 76.78 84.9799 76.48C85.4399 76.18 85.6599 75.59 86.1399 75.21L87.0299 74.81C87.0299 74.81 91.4499 73.12 93.8299 72.27C90.7299 72.28 83.2099 72.23 83.4899 72.91Z" fill="#8E3F38"/>
<path d="M94.1399 68.2C93.6651 68.5204 93.1708 68.811 92.6599 69.07L85.8399 71.79C85.3699 72.13 91.4399 72.17 94.0199 72.2L95.1499 71.82C95.4999 71.73 95.7199 72.03 96.0199 71.97C96.0199 71.97 96.6299 72.05 96.2199 70.88C95.9899 70.25 95.7699 69.62 95.5799 68.97C95.3899 68.32 95.5099 67.18 94.7299 67.59L94.1399 68.2Z" fill="#8E3F38"/>
<path d="M75.1999 33.48C72.6499 32.01 69.7299 34.09 67.9699 35.89C66.66 37.1579 65.8087 38.8254 65.5499 40.63C65.4583 41.5516 65.6422 42.4798 66.0783 43.2968C66.5144 44.1139 67.1832 44.7832 67.9999 45.22C70.4499 46.55 73.3599 44.57 75.0699 42.86C76.3859 41.6146 77.3102 40.0126 77.7299 38.25C77.841 37.2922 77.6585 36.3233 77.2067 35.4716C76.7549 34.6198 76.0551 33.9253 75.1999 33.48ZM74.7199 38.35C73.8899 39.43 72.9099 40.41 71.9799 41.41C71.6899 41.7 71.3599 42.08 70.9799 42.41C70.6958 42.6855 70.3917 42.9395 70.0699 43.17C69.8123 43.3434 69.5238 43.4656 69.2199 43.53C68.4799 43.65 67.8199 42.91 67.5699 42.3C67.2399 41.52 67.7999 40.69 68.2199 40.12C69.0356 39.1394 69.9393 38.2356 70.9199 37.42C71.6399 36.75 75.6799 33.03 75.9199 35.78C76.0799 36.7 75.2099 37.7 74.7199 38.35Z" fill="#8E3F38"/>
<path d="M96 76.48C95.72 76.62 95.42 76.71 95.11 76.83C94.8 76.95 88.94 78.37 87.64 78.71C87.11 78.71 86.47 78.79 86.14 78.36C85.81 77.93 84.72 78.36 85.14 79.04C85.8 80.19 85.63 81.73 85.97 82.96C86.05 83.24 86.58 83.05 86.97 82.65C87.3168 82.2936 87.7514 82.035 88.23 81.9C89.14 81.5134 90.0991 81.2543 91.08 81.13C92.46 81.53 90.53 82.99 90.08 83.44C88.9452 84.4898 88.01 85.7366 87.32 87.12C87.08 87.66 86.71 88.81 87.6 88.84L88.11 88.56L92.93 84.89L94.07 85.52C94.5605 85.6817 95.0781 85.7446 95.593 85.7051C96.1079 85.6656 96.6099 85.5246 97.07 85.29C97.639 85.0116 98.1239 84.5872 98.4752 84.0602C98.8266 83.5331 99.0318 82.9223 99.07 82.29C99.0353 81.0151 98.8025 79.7534 98.38 78.55C98.15 77.63 97.97 76.74 97.71 75.82C97.57 75.35 97.45 75.1 97.13 75.22H97.07L96.97 75.28L96.9 75.34L96.73 75.63C96.5673 75.9737 96.3151 76.2673 96 76.48ZM97.48 80.01C97.63 80.7 97.8 81.46 97.25 82.01C96.9773 82.1457 96.6928 82.2561 96.4 82.34L95.84 82.48C95.3391 82.6165 94.8109 82.6165 94.31 82.48C93.78 82.27 92.97 80.71 93.31 80.13C94.31 79.87 95.43 79.63 96.48 79.37C97.16 79.31 97.34 79.4 97.48 80V80.01Z" fill="#8E3F38"/>
<path d="M96.8899 75.38L96.8999 75.37L96.9099 75.36L96.8899 75.38Z" fill="#8E3F38"/>
<path d="M73.9099 45.93H73.9299L73.9399 45.91L73.9099 45.93Z" fill="#8E3F38"/>
<path d="M84.19 45.27C84.0438 44.9868 83.8801 44.7129 83.7 44.45C82.88 42.99 80.81 41.4 79.1 42.39L78.63 42.71C77.9196 43.3214 77.4252 44.1455 77.22 45.06C77.2679 46.6873 77.5301 48.3012 78 49.86C78.32 51.21 78.45 52.7 77.28 53.64C75.09 54.64 74.19 50.99 74.15 49.4C74.15 48.4 74.53 47.4 74.59 46.4C74.59 45.95 74.27 45.8 73.93 45.98C73.1227 46.7458 72.3709 47.5678 71.68 48.44C71.32 48.95 70.77 49.44 71.34 49.93C72.1596 50.6239 72.7404 51.5579 73 52.6C73.246 53.4971 73.7969 54.2803 74.5579 54.8151C75.319 55.3498 76.2427 55.6026 77.17 55.53C78.2978 55.3674 79.3374 54.8282 80.12 54C80.7247 53.3579 81.1623 52.577 81.3942 51.726C81.6262 50.8751 81.6453 49.9801 81.45 49.12C81.22 47.81 80.54 46.51 80.51 45.17C80.5065 45.0181 80.5339 44.867 80.5907 44.7261C80.6474 44.5851 80.7322 44.4571 80.84 44.35C82.43 43.71 83.02 46.41 83.06 47.57C83.0696 48.3233 82.972 49.0742 82.77 49.8C82.77 50.01 82.49 50.37 82.77 50.4C83.41 50.46 85.39 48.49 85.49 48.4C86.21 47.82 85.01 46.99 84.72 46.4C84.5613 46.0152 84.3845 45.6381 84.19 45.27Z" fill="#8E3F38"/>
<path d="M100.68 105.14C100.86 103.46 100.11 100.91 98.1599 100.67C98.1599 100.67 96.2499 100.59 95.5799 101.28C94.4387 102.709 93.5923 104.351 93.0899 106.11C92.6399 107.43 91.9899 108.65 90.5099 108.71C87.2299 107.44 89.0399 103.84 90.2399 102.85C91.1599 102.09 91.6599 101.62 92.2399 101.2C92.2399 101.2 92.7499 100.6 92.1699 100.77L88.0599 101.56C88.3477 102.627 88.2739 103.759 87.8499 104.78C87.1999 106.64 87.7299 109.12 89.3499 110.17C90.3144 110.736 91.4459 110.948 92.5499 110.77C94.3699 110.53 95.2799 109.24 96.0599 107.61C97.0599 105.61 96.6999 104.31 97.8699 103.22C98.1147 103.038 98.415 102.946 98.7199 102.96C100.37 103.4 99.5999 106.22 98.9699 107.17C98.5599 107.79 96.7399 109.04 96.8999 109.06C97.0599 109.08 96.5199 109.69 97.1799 109.61C98.1296 109.399 99.0676 109.139 99.9899 108.83C100.51 108.55 100.21 108.01 100.33 107.39C100.38 107 100.64 105.45 100.68 105.14Z" fill="#8E3F38"/>
<path d="M2.58 3.74001C1.72376 3.63952 0.859988 3.61943 0 3.68001L0 17.3C1.06245 17.2359 2.11166 17.0308 3.12 16.69C3.55292 16.5498 3.95875 16.3367 4.32 16.06C4.59366 15.8834 4.84834 15.679 5.08 15.45C6.24607 14.0809 6.84049 12.3156 6.74 10.52C6.81188 8.78854 6.44012 7.06744 5.66 5.52001C5.32276 5.002 4.8681 4.57085 4.33293 4.26156C3.79777 3.95228 3.19719 3.77359 2.58 3.74001ZM2.09 15.52C1.31 15.79 1.19 14.87 1.14 14.22C1 13.17 0.92 12.12 0.8 11C0.64 9.21001 0.44 7.38001 0.26 5.54001L0.32 5.00001C3.15 4.11001 2.92 10.05 2.92 11.57C3 13 3.16 14.55 2.09 15.52Z" fill="#8E3F38"/>
<path d="M91.2499 57.91C91.2499 57.43 90.7399 57.49 90.7799 57.48C90.8199 57.47 90.2999 57.55 89.5999 58.6L88.7799 58.82C86.5599 59.32 80.9099 59.88 80.3599 59.94C79.5799 60.01 78.9499 59.66 78.2599 59.82L77.8499 59.94C77.5099 60.15 78.0799 60.75 78.1799 60.94C78.4259 61.422 78.6397 61.9198 78.8199 62.43C78.9799 62.87 79.4199 62.81 79.8199 62.55L80.6099 61.78C81.1222 61.5452 81.6588 61.3675 82.2099 61.25C82.3024 61.218 82.4005 61.2058 82.498 61.214C82.5955 61.2223 82.6902 61.2509 82.7759 61.298C82.8616 61.3451 82.9366 61.4097 82.9958 61.4876C83.0551 61.5654 83.0974 61.6548 83.1199 61.75C83.3799 62.37 83.6699 62.97 83.9199 63.59C84.1313 63.9238 84.2327 64.3155 84.2099 64.71C83.5818 65.3663 82.8309 65.893 81.9999 66.26L81.3799 66.34C81.2801 66.3793 81.1964 66.4508 81.142 66.5433C81.0876 66.6357 81.0658 66.7437 81.0799 66.85C81.1917 67.2365 81.3675 67.6016 81.5999 67.93C81.8707 68.576 82.0816 69.2455 82.2299 69.93C82.6999 71.22 83.2299 70.71 83.2299 70.71C83.3899 70.54 83.4099 70.31 83.5499 70.05C84.0311 69.2914 84.6323 68.616 85.3299 68.05C87.1199 66.25 91.0199 62.54 91.1399 62.46H91.0699C91.0699 62.46 92.5999 62.28 92.7099 61.97C93.4499 61.41 91.2599 58.55 91.2499 57.91ZM87.9399 61.15L85.9999 63.09L86.0999 63.03L85.9799 63.11H85.5099C85.2627 62.6574 85.0904 62.1677 84.9999 61.66C84.9099 61.32 84.6399 60.98 84.9399 60.71C85.8707 60.625 86.8053 60.5883 87.7399 60.6C87.7399 60.6 88.2999 60.77 87.9399 61.18V61.15Z" fill="#8E3F38"/>
<path d="M50.85 18.81C49.94 20.43 47 25.44 46.37 26C45.12 26.16 45.23 26.48 45.19 26.53C44.69 27.04 46.19 27.45 46.51 27.59C47.81 28.27 51.42 30.59 51.95 30.94C52.241 31.1702 52.5562 31.368 52.89 31.53C52.89 31.53 53.6 31.48 55.71 28.94C55.95 28.65 56.54 27.94 55.71 28.01C55.1357 28.1906 54.5771 28.418 54.04 28.69C52.8634 28.9212 51.643 28.7337 50.59 28.16C49.69 27.66 49.93 27.22 50.32 26.56C50.96 25.42 51.6 24.28 52.26 23.14C52.6287 23.2678 52.952 23.5007 53.19 23.81C53.6851 24.3136 53.974 24.9842 54 25.69C54 26.2 54.41 26.48 54.78 26.09C55.2231 25.4225 55.5604 24.6905 55.78 23.92C55.96 23.54 56.58 22.24 56.16 22.14C55.7349 22.1645 55.3195 22.2769 54.94 22.47L54.22 22.33C53.67 22.19 53.34 22.21 53.01 21.7C53.64 20.7 54.24 19.65 54.94 18.7C55.62 18.65 56.41 19.7 56.7 20.22C57.0822 20.839 57.3656 21.5137 57.54 22.22C57.585 22.394 57.6953 22.5441 57.848 22.639C58.0006 22.734 58.184 22.7666 58.36 22.73C58.4759 22.6872 58.5795 22.6165 58.6615 22.524C58.7435 22.4315 58.8014 22.3202 58.83 22.2C59.0989 21.4659 59.3292 20.7182 59.52 19.96C59.52 19.66 58.65 19.29 58.42 19.14C56.69 18 55 16.78 53.29 15.68C53.06 15.51 51.51 14.68 51.56 15.68C51.56 16.03 51.68 16.35 51.64 16.68C51.5263 17.4369 51.2574 18.1621 50.85 18.81ZM46.28 26.07L46.06 26.16L46.32 26.04L46.28 26.07Z" fill="#8E3F38"/>
<path d="M100.11 90.2C100.119 89.6902 100.055 89.1816 99.9199 88.69C99.7799 88.52 99.5699 88.47 99.2599 88.69C98.9499 88.91 98.7899 89.17 98.5099 89.34C97.8899 89.69 95.0499 89.42 94.5099 89.81C93.7699 90.32 89.4299 90.6 88.6199 90.36C88.3699 90.18 88.3899 90 87.9499 89.82C87.2399 89.68 87.3999 91.05 87.4399 91.39C87.6499 92.86 87.8499 94.28 87.9199 95.77C87.9199 96.46 87.8399 97.22 87.8599 97.9C87.8599 98.24 87.8599 98.17 87.9999 98.5L88.2999 98.63C88.2999 98.63 90.8999 99 91.4099 99.1C92.1499 99.26 92.4099 98.72 91.8999 98.5C91.1199 98.0886 90.4441 97.5045 89.9242 96.7922C89.4043 96.0799 89.054 95.2583 88.8999 94.39C88.7699 93.39 89.2499 93.32 89.9999 93.26L93.8299 92.95C93.9402 93.3322 93.9402 93.7378 93.8299 94.12C93.775 94.4293 93.6581 94.7242 93.4862 94.9872C93.3144 95.2501 93.0911 95.4756 92.8299 95.65C92.4499 95.99 92.5499 96.47 93.0799 96.34C94.0329 96.0534 95.0011 95.8197 95.9799 95.64C96.6799 95.58 96.2999 95.17 96.2999 95.17C95.0199 94.02 95.2999 93.45 95.2199 93.25C95.0099 92.71 95.2199 92.77 95.7399 92.74C96.8899 92.74 98.0299 92.51 99.1999 92.54C99.6299 93.09 99.2799 95.19 99.0699 95.72C98.8599 96.25 98.1399 96.72 97.7799 97.32C97.7799 97.32 97.1499 98.15 98.2699 98.03L100.46 97.35C100.67 97.16 100.46 96.72 100.46 96.45C100.38 94.31 100.23 92.3 100.11 90.2ZM88.4599 90.3L88.2999 90.16L88.5299 90.32L88.4599 90.3Z" fill="#8E3F38"/>
<path d="M21.8 26.84C21.8 26.84 22.18 26.53 21.91 26.36C20.5843 25.4199 19.3904 24.3067 18.36 23.05C17.8 22.46 17.24 21.87 16.65 21.29L15.84 20.61C16.3184 21.419 16.8566 22.1911 17.45 22.92C18.6971 24.4356 20.1632 25.7567 21.8 26.84Z" fill="#8E3F38"/>
<path d="M14.91 30.62C15.1177 30.8937 15.4057 31.0958 15.7337 31.198C16.0618 31.3002 16.4136 31.2974 16.74 31.19L17.31 30.73C16.53 31.02 15.94 30.45 15.44 29.9C14.9661 29.3324 14.4178 28.8312 13.81 28.41C13.41 28.14 12.17 27.55 11.75 28.17C12.193 28.6888 12.4777 29.324 12.57 30C12.57 30.72 12.57 31.61 13.39 31.77C13.9192 31.7619 14.4393 31.6319 14.91 31.39C13.91 31.8 13.21 31.25 13.34 30.2C13.3685 29.9066 13.3241 29.6106 13.2107 29.3385C13.0973 29.0663 12.9184 28.8264 12.69 28.64C13.5893 29.0962 14.3544 29.7785 14.91 30.62Z" fill="#8E3F38"/>
<path d="M36 81.89C36.7641 82.3061 37.6167 82.5332 38.4866 82.5524C39.3565 82.5715 40.2183 82.3821 41 82C43.55 80.65 44.12 77.69 44.45 76.18L43.96 76.46C43.59 77.75 42.24 81.05 38.4 81.22C36.2809 81.306 34.207 80.5921 32.59 79.22C33.5734 80.2901 34.7253 81.192 36 81.89Z" fill="#8E3F38"/>
<path d="M28.9 76L28.35 76.35C28.35 77.89 29.61 79.09 30.73 79.97L31.03 79.81C31.03 79.81 28.92 78 28.9 76Z" fill="#8E3F38"/>
<path d="M44.14 94.05C43.14 92.89 39.73 92.2 39.6 92.16C40.94 92.64 42.82 93.28 43.66 94.51C43.66 94.51 43.66 96.89 43.76 98.51C43.8447 99.3895 43.7234 100.277 43.4058 101.101C43.0881 101.926 42.5829 102.665 41.93 103.26L42.5 102.92C44.5 101.31 44.5 98 44.3 95.63C44.2959 94.914 44.4874 94.2104 44.854 93.5954C45.2206 92.9803 45.7482 92.4771 46.38 92.14C45.5181 92.6277 44.7578 93.2761 44.14 94.05Z" fill="#8E3F38"/>
<path d="M30 91.5C31.3223 90.9684 32.7486 90.746 34.17 90.85L34.76 90.49C33.3347 90.3905 31.9053 90.6162 30.58 91.15L30 91.5Z" fill="#8E3F38"/>
<path d="M50.9399 123.05C52.7599 123.05 52.7999 120.92 52.6899 120.17L51.8599 120.63C51.7499 120.72 51.8599 120.79 51.8599 121.4C51.784 122.05 51.4531 122.644 50.9399 123.05Z" fill="#8E3F38"/>
<path d="M54.69 113L54.12 113.34C54.3138 114.722 54.1091 116.13 53.53 117.4C53.3253 117.76 53.0804 118.095 52.8 118.4L52.47 118.69C52.4289 118.733 52.3818 118.77 52.33 118.8L52.73 118.57C54.54 117.47 54.89 115 54.69 113Z" fill="#8E3F38"/>
<path d="M49.1399 104.88L48.5599 105.23C50.103 105.491 51.5247 106.232 52.6232 107.346C53.7218 108.461 54.4414 109.893 54.6799 111.44C54.6599 111.37 54.0599 104.84 49.1399 104.88Z" fill="#8E3F38"/>
<path d="M52.21 115.27L52.43 114.45C51.36 108.95 43.68 108.76 43.51 108.74C47.52 109.76 50.44 111.22 52.21 115.27Z" fill="#8E3F38"/>
<path d="M39.6899 105.34C39.3849 105.408 39.0843 105.495 38.7899 105.6C38.4999 105.72 37.6899 105.49 37.3499 105.6C36.897 105.77 36.4969 106.056 36.1899 106.43C36.5573 106.192 36.9693 106.031 37.4008 105.957C37.8323 105.883 38.2743 105.898 38.6999 106C40.9046 105.415 43.1792 105.135 45.4599 105.17L46.0399 104.84C43.9102 104.666 41.7663 104.835 39.6899 105.34Z" fill="#8E3F38"/>
<path d="M7.4 117.32H7.47C4.99 114.4 2.47 111.48 0 108.57V109.27C2.18 112.16 4.52 114.98 6.85 117.73H6.93L7.13 117.61L7.4 117.32Z" fill="#8E3F38"/>
<path d="M11.35 113C10.78 113 9.14995 113.25 9.05995 113C8.76669 112.401 8.43256 111.823 8.05995 111.27C6.55542 108.898 4.91606 106.614 3.14995 104.43C2.36718 103.351 1.23737 102.575 -0.0500488 102.23V102.77C1.09864 103.222 2.09199 103.996 2.80995 105C4.53058 107.168 6.13613 109.424 7.61995 111.76C7.94677 112.272 8.23748 112.807 8.48995 113.36C8.59995 113.62 8.54995 113.67 8.79995 113.68C9.37995 113.68 10.51 113.98 11.1 113.96C13.47 113.89 15.53 113.96 17.91 113.86C21.72 113.76 25.9999 113.92 29.4599 113.3L29.7099 112.78C25.8499 112.89 22.04 112.78 18.17 112.89C15.81 113 13.73 112.93 11.35 113Z" fill="#8E3F38"/>
<path d="M28.62 115L22.79 115.08L22.21 115.44C24.16 115.44 26.11 115.44 28.04 115.34L28.62 115Z" fill="#8E3F38"/>
<path d="M18.37 116.19L11.79 116.29L11.21 116.64L17.78 116.54L18.37 116.19Z" fill="#8E3F38"/>
<path d="M8.57996 117.79L12.9 117.73L13.48 117.37L9.16996 117.44L8.57996 117.79Z" fill="#8E3F38"/>
<path d="M32.16 119.07L9.68997 118.42L9.09998 118.78L31.57 119.43L32.16 119.07Z" fill="#8E3F38"/>
<path d="M26.37 118.28H31.08L31.67 117.92C30.09 117.92 28.52 117.92 26.93 117.99L26.37 118.28Z" fill="#8E3F38"/>
<path d="M0 143.45V143.82C1.08823 143.848 2.17151 143.664 3.19 143.28L3.75 142.94C2.55155 143.379 1.27217 143.553 0 143.45Z" fill="#8E3F38"/>
<path d="M21.8899 156.35C22.1199 156.52 22.3999 156.35 22.6699 157C22.8552 157.671 22.8552 158.379 22.6699 159.05C22.9199 158.49 23.6699 156.51 22.8699 155.92L21.8899 156.35Z" fill="#8E3F38"/>
<path d="M22.68 159.05L22.63 159.16C22.6545 159.127 22.6715 159.09 22.68 159.05Z" fill="#8E3F38"/>
<path d="M16.8199 175.36C16.8199 175.36 21.0899 174.13 18.4599 171.24L17.5399 172.43C17.2099 172.72 17.7099 172.92 17.9599 172.7C18.1098 172.877 18.2108 173.09 18.2529 173.318C18.295 173.546 18.2767 173.781 18.1999 174C17.8452 174.549 17.374 175.013 16.8199 175.36Z" fill="#8E3F38"/>
<path d="M5.18 151.62C3.4291 151.482 1.69492 151.18 0 150.72L0 152.43C0.55 152.59 1.11 152.73 1.67 152.85C5.83 153.73 6.98 152.13 6.67 151.79C6.36 151.45 5.7 151.7 5.18 151.62Z" fill="#8E3F38"/>
<path d="M11.3899 157.52C14.9599 157.52 15.8799 154.47 15.7399 152.52C15.0599 155.85 11.4399 157.5 11.3899 157.52Z" fill="#8E3F38"/>
<path d="M0 156.49V157C0.646405 157.489 1.45407 157.714 2.26 157.63L2.84 157.28C2.33 157.51 1.19 157.08 0 156.49Z" fill="#8E3F38"/>
<path d="M31.2799 108.44L31.0499 108.56C35.9899 111.66 37.9599 115.09 37.9199 115.11L38.2299 114.96C38.6399 114.63 34.2199 109.7 31.2799 108.44Z" fill="#8E3F38"/>
<path d="M43.49 121.59C43.7174 120.607 43.7005 119.584 43.4408 118.61C43.181 117.635 42.6863 116.739 42 116C42 116 43.82 119.28 43 122L43.49 121.59Z" fill="#8E3F38"/>
<path d="M41.39 113.07L41.11 113.23C41.7959 114.025 42.4021 114.886 42.92 115.8C42.99 116.02 43.41 114.98 42.92 114.1C42.555 113.579 42.0099 113.212 41.39 113.07Z" fill="#8E3F38"/>
<path d="M0 82.62V82.89L11.07 83.13C7.39989 82.6606 3.69772 82.49 0 82.62Z" fill="#8E3F38"/>
<path d="M66.34 130.5L66.91 130.15C68.32 128.85 69.81 126.92 69.91 124.85L69.34 125.22C69.24 127.27 67.75 129.18 66.34 130.5Z" fill="#8E3F38"/>
<path d="M0 176.85V176.86L0.02 176.83L0 176.85Z" fill="#8E3F38"/>
<path d="M81.9199 111.69H81.4799C81.1099 112.13 82.3399 113.03 83.1499 113.19C83.1699 113.14 81.7699 112.15 81.9199 111.69Z" fill="#8E3F38"/>
<path d="M30.54 26.91C30.63 26.47 29.82 26.51 29.66 26.34C29.5 26.17 30.61 26.12 30.34 25.9C30.0984 25.7115 29.8168 25.581 29.5169 25.5186C29.2169 25.4562 28.9066 25.4635 28.61 25.54C28.3863 25.5921 28.1536 25.5921 27.93 25.54C24.24 24.03 23.73 23.54 22.43 22.38C22.417 21.932 22.3429 21.488 22.21 21.06C21.55 19.46 19.21 18.89 19.21 18.89C19.8158 19.4307 20.3807 20.0157 20.9 20.64C21.3252 21.302 21.611 22.0438 21.74 22.82C22.2492 23.9082 22.9659 24.8865 23.85 25.7C23.5114 25.0929 23.2043 24.4687 22.93 23.83C22.81 23.57 22.73 23.28 22.62 23C24.53 24.8 26.62 27.06 29.1 27.55C29.1 27.55 29.1 27.41 29.19 27.26C29.28 27.11 29.39 26.82 29.67 27.04L32.59 28.69C32.65 27.81 30.34 27.7 30.54 26.91Z" fill="#8E3F38"/>
<path d="M34.2399 31L34.8099 31.45L35.1499 31.11C35.5435 30.3676 35.7495 29.5403 35.7499 28.7C35.7037 26.9714 35.1961 25.2866 34.2799 23.82C32.968 21.7834 31.4968 19.854 29.8799 18.05C29.7999 18.49 30.9599 19.51 31.2099 19.8C32.168 21.1629 32.9571 22.637 33.5599 24.19C34.1511 25.6174 34.4895 27.1367 34.5599 28.68C33.6192 27.0829 32.5058 25.594 31.2399 24.24C31.1399 24.1 30.6999 24.14 30.9299 24.46C32.3819 26.274 33.5517 28.2968 34.3999 30.46L34.2399 31Z" fill="#8E3F38"/>
<path d="M29 31.41C29.24 31.27 29.14 30.41 29 30.41V30.34C27.3796 29.8733 25.8627 29.103 24.53 28.07C24.2079 27.7929 23.9071 27.4921 23.63 27.17L23.29 26.73H22.86C23.9948 28.5086 25.5552 29.9762 27.4 31C27.74 31.19 28.58 31.64 29 31.41Z" fill="#8E3F38"/>
<path d="M22 27.91C22 27.91 22.2 29.23 25 31.13L26.36 31.07C24.7327 30.2804 23.2569 29.2107 22 27.91Z" fill="#8E3F38"/>
<path d="M29.9099 30.06C30.207 30.1175 30.5077 30.1543 30.8099 30.17C31.1399 30.17 31.4299 30.43 31.7499 30.47C32.0699 30.51 32.0299 29.9 32.0299 29.9C31.7631 29.6496 31.4483 29.4558 31.1046 29.3304C30.7609 29.2049 30.3953 29.1504 30.0299 29.17C30.0299 29.17 27.4299 28.68 26.5399 27.68H26.4099C26.2999 27.95 26.5299 28.27 26.6799 28.43C27.5754 29.2363 28.6638 29.7977 29.8399 30.06H29.9099Z" fill="#8E3F38"/>
<path d="M22.67 19L22.1 19.35C22.6125 19.6505 23.1958 19.8092 23.79 19.81C23.9663 19.8252 24.1436 19.8252 24.32 19.81L24.89 19.45C24.7252 19.482 24.5578 19.4987 24.39 19.5C23.7839 19.4796 23.1925 19.3077 22.67 19Z" fill="#8E3F38"/>
<path d="M23.9099 20.18L23.3199 20.53C23.9013 20.7479 24.529 20.8117 25.1423 20.7154C25.7556 20.619 26.3335 20.3657 26.8199 19.98C25.8752 20.253 24.8831 20.3212 23.9099 20.18Z" fill="#8E3F38"/>
<path d="M26.05 22.66L25.73 23.32C26.54 23.56 27.03 23.03 27.59 21.99H27C26.93 22 26.49 22.83 26.05 22.66Z" fill="#8E3F38"/>
<path d="M25.9199 24L26.1899 24.18C26.9999 24.18 27.8299 23.71 28.4599 24.23C28.4599 24.29 28.8699 24.28 28.7199 23.78C27.6499 22.43 27.5799 23.25 26.4899 23.64L25.9199 24Z" fill="#8E3F38"/>
<path d="M34.1499 40.26C34.8299 40.32 35.3899 40.99 35.9499 41.49L36.1499 41.02C35.9399 40.49 35.6899 39.36 35.0099 39.3C34.3299 39.24 34.1499 40.26 34.1499 40.26Z" fill="#8E3F38"/>
<path d="M35.6199 33.29C35.675 34.3608 35.4254 35.4253 34.8999 36.36L33.7699 37.22C35.6199 36.81 36.4199 34.67 36.4199 32.99C36.4199 33.12 35.6299 32.56 35.6199 33.29Z" fill="#8E3F38"/>
<path d="M37 31.52C37.5667 30.3007 37.9605 29.0082 38.17 27.68L37.58 28.03C35.91 32.45 37 31.52 37 31.52Z" fill="#8E3F38"/>
<path d="M6.16991 166.45L7.33991 165.74C5.92699 165.817 4.5828 166.375 3.52991 167.32C4.33077 166.83 5.23446 166.532 6.16991 166.45Z" fill="#8E3F38"/>
<path d="M10.11 165.21C10.6583 165.213 11.2008 165.097 11.7 164.87C12.6024 164.363 13.4303 163.734 14.16 163L13.07 163.55C12.5949 164.065 11.9546 164.398 11.26 164.49L10.11 165.21Z" fill="#8E3F38"/>
<path d="M13 165.56C13.4252 165.607 13.8555 165.559 14.26 165.42C14.9278 165.125 15.5453 164.726 16.09 164.24C15.5043 164.603 14.8379 164.816 14.15 164.86L13 165.56Z" fill="#8E3F38"/>
<path d="M0.16 189C0.81 187.66 1.89 188.86 1.89 188.86C2.67 189.65 2.94 188.61 2.94 188.61C3.49 187.61 2.82 187.34 2.82 187.34C1.97263 186.834 0.974249 186.643 0 186.8L0 193.88C0.56 195.1 0.34 195.77 0 196.12V198.61C0.599273 198.549 1.16512 198.305 1.62 197.91C4.86 194.91 2.21 192.15 2.21 192.15C-0.56 189.42 0.16 189 0.16 189Z" fill="#8E3F38"/>
<path d="M5.38999 187.16L4.99999 196.42C5.0676 196.828 5.02265 197.246 4.86999 197.63C4.86999 197.63 4.03999 198.8 5.32999 198.83H6.71999C6.71999 198.83 7.88999 199.08 7.71999 197.94L7.65999 193.59C7.65999 193.59 8.87999 192.4 9.86999 195.39C9.86999 195.39 11.55 199.9 14.7 198.25C14.7 198.25 15.65 197.62 14.32 197.34C14.32 197.34 12.97 197.64 11.64 194.44C11.3441 193.778 10.8951 193.195 10.33 192.74C10.33 192.74 12.22 192.25 12.15 189.38C12.15 189.38 12.43 187.16 9.68999 186.66L6.32999 186.47C5.97305 186.64 5.60564 186.787 5.22999 186.91L5.38999 187.16ZM8.89999 187.69C10.09 187.69 9.77999 189.86 9.77999 189.86C9.81943 190.233 9.74502 190.61 9.56654 190.94C9.38807 191.27 9.11387 191.539 8.77999 191.71C7.64999 192.37 7.77999 191.27 7.77999 191.27V188.17C7.62999 187.37 8.89999 187.69 8.89999 187.69Z" fill="#8E3F38"/>
<path d="M20.59 191.67C20.5419 190.676 20.1459 189.731 19.4714 189C18.7968 188.269 17.8866 187.798 16.8999 187.67C16.8999 187.67 12.4399 187.22 12.8299 192.6C13.2199 197.98 18.09 196.9 18.09 196.9C18.09 196.9 20.72 195.92 20.59 191.67ZM16.67 195.41C16.67 195.41 15.17 195.89 15.01 192.1C14.85 188.31 16.6299 188.92 16.6299 188.92C16.6299 188.92 18.4899 189.16 18.4799 191.81C18.4299 195.79 16.67 195.41 16.67 195.41Z" fill="#8E3F38"/>
<path d="M22.61 184.4C22.2649 184.282 21.9304 184.134 21.61 183.96C21.5285 184.083 21.4226 184.189 21.2988 184.27C21.1749 184.351 21.0358 184.405 20.89 184.43C20.89 184.43 19.89 184.61 20.73 185.88C20.73 185.88 21.23 186.03 21.8 190.88C22.0629 192.553 22.2332 194.239 22.31 195.93C22.31 195.93 21.56 197.78 22.91 197.53C23.6819 197.273 24.4868 197.128 25.3 197.1C25.3 197.1 28.16 196.36 28.57 196.1C28.57 196.1 30.85 195.48 30.25 191.81C30.1171 191.273 29.8502 190.778 29.4742 190.373C29.0981 189.967 28.6253 189.663 28.1 189.49C28.1 189.49 27.49 189.39 27.88 188.75C27.88 188.75 29.67 185.04 26.12 183.65H25.96C25.5042 184.037 24.9611 184.308 24.3775 184.438C23.7939 184.569 23.1873 184.556 22.61 184.4ZM27.88 193.53C27.9035 193.848 27.8608 194.167 27.7546 194.467C27.6483 194.768 27.4809 195.043 27.2627 195.275C27.0446 195.507 26.7806 195.691 26.4875 195.816C26.1944 195.941 25.8785 196.004 25.56 196C24.61 196.19 24.66 195.39 24.66 195.39C24.5702 194.21 24.4032 193.038 24.16 191.88C23.86 190.38 26.45 190.65 26.45 190.65C26.45 190.65 28 190.77 27.88 193.53ZM24.37 185C26.24 184.34 26.12 187.16 26.12 187.16C26.37 189.68 24.75 189.6 24.75 189.6C23.42 190.13 23.75 189.08 23.75 189.08L23.51 187.08C23.07 184.74 24.37 185 24.37 185Z" fill="#8E3F38"/>
<path d="M30.4599 182C29.8434 182.374 29.1667 182.638 28.4599 182.78C28.4599 182.78 27.2999 182.61 28.8799 184.1C28.8799 184.1 29.6599 184.43 31.3299 187.39L34.8599 193.27C34.8599 193.27 35.5499 194.57 36.4899 193.94C36.7731 193.882 37.0275 193.728 37.2098 193.504C37.3922 193.28 37.4911 192.999 37.4899 192.71L37.4099 187.09C37.4099 187.09 37.4999 185.59 39.0899 186.78C39.8366 187.542 40.5065 188.376 41.0899 189.27C41.0899 189.27 42.6399 191.78 44.6899 190.73C44.6899 190.73 45.6899 190.08 44.5699 189.51C44.5699 189.51 43.7799 189.3 42.5699 187.51C42.5699 187.51 41.1599 185.7 40.1399 185.59C40.1399 185.59 42.0799 183.68 41.4899 181.66C41.4899 181.66 41.3399 178.66 37.6599 179.48L35.1599 180.21C35.1599 180.21 34.4299 180.1 34.7899 181.58C34.7899 181.58 35.5499 188.76 35.1799 190.58C35.1799 190.58 33.6399 188.08 33.1799 187.45C33.1799 187.45 30.9399 183.85 31.1199 183.1C31.0499 183.08 31.4599 181.24 30.4599 182ZM38.2099 180.63C39.3999 180.5 39.5799 182.85 39.5799 182.85C39.6052 183.327 39.4886 183.801 39.2448 184.212C39.001 184.624 38.6409 184.953 38.2099 185.16C37.2799 185.88 37.4399 184.95 37.4399 184.95L37.2699 181.68C37.0999 180.31 38.2099 180.63 38.2099 180.63Z" fill="#8E3F38"/>
<path d="M47.38 176.71C48.54 176.25 47.38 175.35 47.38 175.35C47.3286 175.227 47.2444 175.12 47.1365 175.041C47.0287 174.963 46.9013 174.915 46.7683 174.904C46.6353 174.892 46.5018 174.918 46.3822 174.977C46.2626 175.036 46.1615 175.127 46.09 175.24C45.64 175.58 41.81 177.47 41.81 177.47C40.52 177.73 40.98 178.47 40.98 178.47L41.4 179.47C42.09 180.47 42.4 179.4 42.4 179.4L42.95 178.35C43.77 177.59 44.16 178.4 44.16 178.4C44.4071 179.16 44.7427 179.888 45.16 180.57C45.79 181.57 45.16 181.65 45.16 181.65L43.94 182.48C43.7812 182.556 43.6452 182.672 43.5458 182.818C43.4464 182.963 43.3871 183.132 43.3739 183.307C43.3608 183.483 43.3941 183.659 43.4707 183.817C43.5473 183.976 43.6643 184.111 43.81 184.21C44.36 184.99 45.81 183.6 45.81 183.6C46.63 182.91 46.81 183.7 46.81 183.7L47.88 185.87C48.46 187.24 47.8 187.26 47.8 187.26L46.73 187.55C45.51 187.8 46.04 189.18 46.04 189.18C46.32 190.1 47.49 189.38 47.49 189.38L50.86 187.5C51.66 186.8 50.12 185.79 50.12 185.79L46.12 177.45C45.47 176.51 47.38 176.71 47.38 176.71Z" fill="#8E3F38"/>
<path d="M51.3999 171.67C48.6099 172.9 49.7899 176.11 49.7899 176.11C49.7899 176.11 49.9699 178.41 54.6099 178.57C54.6099 178.57 58.1299 178.4 56.7799 181.57C56.7799 181.57 55.9699 182.95 53.9899 182.07C53.9899 182.07 51.9199 180.98 51.9899 183.45C51.9899 183.45 52.1599 184.79 55.4199 184.74C55.4199 184.74 60.0999 184.22 59.2499 179.53C59.2499 179.53 59.0399 176.42 53.8499 176.25C53.8499 176.25 50.6699 176.25 51.8499 173.98C51.8499 173.98 54.0599 172.06 54.5199 173.88C54.5199 173.88 54.6099 175.38 55.7099 174.33C55.9402 174.036 56.0654 173.673 56.0654 173.3C56.0654 172.927 55.9402 172.564 55.7099 172.27C55.7099 172.27 54.9999 170 51.3999 171.67Z" fill="#8E3F38"/>
<path d="M59.7299 167.64C59.9399 167.17 61.1699 166.88 61.1699 166.88C61.2941 166.804 61.3966 166.697 61.4677 166.571C61.5389 166.444 61.5762 166.301 61.5762 166.155C61.5762 166.009 61.5389 165.866 61.4677 165.739C61.3966 165.613 61.2941 165.506 61.1699 165.43C60.4899 164.43 59.8199 165.28 59.8199 165.28L55.8899 168.55C54.8899 169.26 55.29 169.89 55.29 169.89L55.7099 170.89C56.2699 171.74 56.7099 170.7 56.7099 170.7C56.9028 170.281 57.1517 169.891 57.45 169.54C58.04 168.91 58.2799 169.54 58.2799 169.54L62.3699 175.54C62.8495 176.227 63.1893 177.002 63.3699 177.82C63.7699 179.14 64.87 178.15 64.87 178.15L65.7499 177.39C66.0299 176.94 66.6299 176.39 65.7499 176.02C65.2104 175.793 64.7311 175.444 64.3499 175L59.79 168.46C59.23 167.94 59.7299 167.64 59.7299 167.64Z" fill="#8E3F38"/>
<path d="M68.8599 170.33L63.9999 167.75C63.9999 167.75 62.9999 167.13 62.5599 168.02C62.5599 168.02 61.2299 169.12 63.0699 169.83L69.4799 172.83C69.4799 172.83 69.8799 173.44 70.5399 172.83L71.3199 172.19C71.3199 172.19 71.8599 171.88 71.4199 170.57L67.8199 161.43C67.4509 160.682 67.2723 159.854 67.2999 159.02C67.2999 159.02 67.2199 157.53 66.2999 158.68L64.9999 160C64.9999 160 63.9999 161.3 65.0799 161.62C65.0799 161.62 65.7499 161.32 66.2199 162.87L69.2199 169.96C69.2199 169.96 69.4899 170.44 68.8599 170.33Z" fill="#8E3F38"/>
<path d="M68.73 155.9C68.73 155.9 68.25 156.96 67.86 156.9C67.86 156.9 66.86 157.84 68.27 158.5C68.27 158.5 69.95 159.11 74.5 164.8C74.5 164.8 74.89 164.8 75.15 166.39C75.15 166.39 75.45 168.39 76.69 166.9L79.51 163.29C79.9047 162.514 80.0353 161.63 79.8819 160.772C79.7285 159.915 79.2995 159.131 78.66 158.54C78.66 158.54 75.03 154.1 72.29 154.14C71.5947 154.098 70.9005 154.238 70.2761 154.547C69.6517 154.856 69.1188 155.322 68.73 155.9ZM77.35 160.51C77.6599 161.023 77.788 161.626 77.7136 162.221C77.6392 162.816 77.3667 163.369 76.94 163.79L71 158C70.8122 157.952 70.6411 157.854 70.5054 157.715C70.3697 157.577 70.2745 157.404 70.2302 157.215C70.1858 157.027 70.1941 156.829 70.254 156.645C70.3139 156.461 70.4232 156.297 70.57 156.17C71.57 155.12 73.43 156.65 73.43 156.65C74.9332 157.721 76.2564 159.023 77.35 160.51Z" fill="#8E3F38"/>
<path d="M72.86 150.34C72.86 150.34 71.92 151.34 73.39 151.83L81.74 158.15C81.74 158.15 82.4 159.15 82.97 158.42L83.62 157.73C83.62 157.73 84.34 156.79 83.33 156.35C82.4202 156.073 81.5764 155.614 80.85 155C80.85 155 76.11 151.1 75.2 150.58C75.2 150.58 73.9 148.59 72.86 150.34Z" fill="#8E3F38"/>
<path d="M74.9299 147.26C74.9299 147.26 74.0699 148.42 75.7999 148.97L85.3899 152.58C85.3899 152.58 86.6399 152.96 87.0199 152.09C87.1443 151.951 87.2395 151.788 87.2999 151.611C87.3603 151.434 87.3847 151.247 87.3716 151.06C87.3586 150.874 87.3083 150.692 87.2239 150.526C87.1395 150.359 87.0225 150.211 86.8799 150.09L81.6099 144C81.6099 144 81.0899 143.55 81.9399 143.58L86.6999 145C86.6999 145 87.9199 145 87.1999 144.07L83.2899 139.86C83.2899 139.86 90.8399 141.26 90.9199 142.47C90.9199 142.47 91.8199 143.47 92.0699 142.16L92.4699 141.29C92.4699 141.29 93.2799 139.91 91.5399 139.93L82.7599 137.63C82.7599 137.63 80.5499 136.46 80.1899 137.55C80.1899 137.55 79.5199 138.36 80.8599 139.44L82.7999 141.44C82.7999 141.44 83.6499 142.22 82.3599 142.02L79.8399 141.3C79.7004 141.207 79.5408 141.148 79.3742 141.129C79.2076 141.11 79.0388 141.13 78.8816 141.189C78.7245 141.247 78.5834 141.342 78.4702 141.466C78.3569 141.59 78.2745 141.738 78.2299 141.9C78.2299 141.9 77.4399 142.6 78.9299 144.08C78.9299 144.08 84.0699 149.24 84.1999 149.97C81.7258 149.118 79.3019 148.126 76.9399 147C76.9399 147 75.6899 145.47 74.9299 147.26Z" fill="#8E3F38"/>
<path d="M23.1999 10.27C23.1826 9.76534 22.9751 9.28589 22.619 8.92791C22.2628 8.56992 21.7845 8.3599 21.2799 8.34C21.0213 8.33971 20.7654 8.39193 20.5276 8.4935C20.2898 8.59506 20.0751 8.74386 19.8965 8.93086C19.7179 9.11786 19.5792 9.33918 19.4886 9.5814C19.3981 9.82363 19.3577 10.0817 19.3699 10.34C19.371 10.5912 19.4229 10.8395 19.5225 11.0701C19.6222 11.3007 19.7675 11.5087 19.9497 11.6815C20.132 11.8544 20.3473 11.9886 20.5828 12.076C20.8183 12.1634 21.069 12.2022 21.3199 12.19C21.8213 12.177 22.298 11.9693 22.6489 11.6109C22.9999 11.2525 23.1975 10.7716 23.1999 10.27Z" fill="#8E3F38"/>
<path d="M85.4 55.73C85.3825 55.2237 85.1736 54.7428 84.8154 54.3846C84.4571 54.0264 83.9763 53.8174 83.47 53.8C83.2114 53.7982 82.9552 53.8495 82.7172 53.9506C82.4793 54.0518 82.2646 54.2008 82.0865 54.3882C81.9084 54.5757 81.7707 54.7977 81.6818 55.0405C81.593 55.2834 81.5549 55.5419 81.57 55.8C81.5654 56.0524 81.613 56.303 81.71 56.536C81.8069 56.7691 81.951 56.9796 82.1332 57.1543C82.3154 57.329 82.5318 57.4641 82.7687 57.5511C83.0056 57.6381 83.258 57.6752 83.51 57.66C84.0141 57.647 84.4933 57.4383 84.8461 57.078C85.1989 56.7177 85.3975 56.2342 85.4 55.73Z" fill="#8E3F38"/>
<path d="M100.2 115.2C100.29 115.75 100.33 116.29 100.37 116.84C100.37 116.29 100.29 115.75 100.21 115.2H100.2Z" fill="#8E3F38"/>
<path d="M81.4999 133C81.4564 133.701 81.6468 134.397 82.0414 134.978C82.436 135.558 83.0123 135.992 83.6799 136.21C84.2299 136.62 85.7699 136.21 86.6799 137.21L86.9499 136.88L85.6299 135.39V136.09C85.7599 136.29 84.8199 135.19 84.1099 135.15C83.7999 135.15 83.2999 135.15 83.1099 134.93L82.1799 132.62C81.8999 132.12 81.3699 132.21 81.4999 133Z" fill="#8E3F38"/>
<path d="M83.7 131.24C83.9 131.53 84.17 131.82 84.36 132.14C84.4371 132.282 84.5039 132.429 84.56 132.58C84.4761 132.3 84.3656 132.029 84.23 131.77C84.0825 131.566 83.9036 131.387 83.7 131.24Z" fill="#8E3F38"/>
<path d="M83.13 128.19C83.0839 128.976 82.9117 129.749 82.62 130.48C82.9955 130.711 83.3562 130.964 83.7 131.24C83.6426 131.158 83.5924 131.071 83.55 130.98C83.1046 130.122 82.9569 129.141 83.13 128.19Z" fill="#8E3F38"/>
<path d="M84.5599 132.58C84.7988 133.306 84.8368 134.084 84.6699 134.83C84.89 134.089 84.8512 133.296 84.5599 132.58Z" fill="#8E3F38"/>
<path d="M83.3 127.42C83.228 127.673 83.1712 127.93 83.13 128.19C82.9569 129.141 83.1046 130.122 83.55 130.98C83.5924 131.071 83.6426 131.158 83.7 131.24C83.9036 131.387 84.0825 131.566 84.23 131.77C84.3656 132.029 84.4761 132.3 84.56 132.58C84.8512 133.296 84.89 134.089 84.67 134.83L85.26 134.47C85.3432 134.18 85.3902 133.881 85.4 133.58C85.3398 132.55 84.9347 131.571 84.25 130.8C83.814 130.208 83.595 129.484 83.63 128.75C83.6245 128.18 83.7088 127.613 83.88 127.07L83.3 127.42Z" fill="#8E3F38"/>
<path d="M86.0999 132.19C86.2699 131.47 86.4699 130.74 86.6399 130.04L86.0699 130.39C85.8999 131.09 85.7199 131.82 85.5199 132.54L86.0999 132.19Z" fill="#8E3F38"/>
<path d="M86.3399 125.05C86.2203 125.748 86.2203 126.462 86.3399 127.16L86.9099 126.81C86.5799 124.81 87.9099 121.81 88.7799 120.32C88.7299 120.5 86.6699 123.33 86.3399 125.05Z" fill="#8E3F38"/>
<path d="M85.7 129.55L86.01 129.38L86.29 129.2C86.3466 128.674 86.6091 128.193 87.02 127.86L86.45 128.21C86.2428 128.373 86.0699 128.575 85.9412 128.805C85.8125 129.035 85.7305 129.288 85.7 129.55Z" fill="#8E3F38"/>
<path d="M7.94 0H6.7C4.44 0 2.21 0.16 0 0.35V1.64C2.22 1.45 4.46 1.33 6.71 1.3H7.94C59.88 1.3 102.39 45.13 103.12 99.85C103.12 100.31 103.12 100.77 103.12 101.23C103.121 105.106 102.904 108.979 102.47 112.83C102.979 112.385 103.397 111.845 103.7 111.24L103.46 112.33C103.206 112.898 102.834 113.406 102.37 113.82C101.448 121.602 99.6463 129.254 97 136.63C97.3744 136.34 97.7104 136.004 98 135.63L98.16 136.16C97.7685 136.668 97.283 137.096 96.73 137.42C83.08 174.17 49.24 200.42 9.34 200.93H8C5.29 200.93 2.62 200.8 0 200.57V201.87C2.65 202.1 5.32 202.22 8 202.22H9.3C62.14 201.52 104.43 156.4 104.42 101.22C104.42 100.76 104.42 100.29 104.42 99.83C103.68 44.44 60.64 0 7.94 0Z" fill="#8E3F38"/>
<path d="M0 174V175.32C0.268129 175.199 0.509474 175.025 0.71 174.81C1.27 173.81 4.55 172.39 4.57 172.37C3.39439 174.03 1.95144 175.483 0.3 176.67C0.195817 176.734 0.0956304 176.804 0 176.88L0 177.75C3 175.75 5.47 173.16 5.8 171.85C10.94 169.76 17.8 168.85 18.06 168.49C12.693 168.747 7.43676 170.109 2.62 172.49C1.6909 172.89 0.811619 173.396 0 174Z" fill="#8E3F38"/>
<path d="M3.34 157.79C2.83 158.46 1.34 160.95 0.45 161.42C0.367599 161.433 0.283259 161.425 0.204661 161.397C0.126064 161.369 0.0557072 161.322 0 161.26L0 162.14C0.611747 162.084 1.19301 161.847 1.67 161.46C2.44287 160.619 3.14524 159.716 3.77 158.76C3.77 159.76 5.01 161.31 4.85 161.64C4.79 161.75 1.85 164.55 1.61 165.82C1.5 166.31 1.38 166.82 1.26 167.3L0 167.25V167.69H1.13C0.889373 168.401 0.784221 169.15 0.82 169.9C0.569159 170.283 0.295323 170.65 0 171L0 172.3C0.358655 171.757 0.749348 171.236 1.17 170.74C1.71 170.27 1.72 170.16 1.74 169.43C1.8755 168.734 2.10776 168.061 2.43 167.43C2.74138 166.931 2.96779 166.383 3.1 165.81C3.5003 164.754 4.09755 163.783 4.86 162.95C5.17876 162.659 5.42522 162.298 5.57974 161.895C5.73426 161.493 5.79256 161.059 5.75 160.63C5.31 159.63 4.47 158.48 4.65 157.35C4.31 156.61 3.62 157.42 3.34 157.79Z" fill="#8E3F38"/>
<path d="M0 182.52V182.61C0.16 182.48 0.28 182.37 0.35 182.3C0.23953 182.383 0.122473 182.456 0 182.52Z" fill="#8E3F38"/>
<path d="M2.15 44.37C1.3713 44.7543 0.648088 45.242 0 45.82L0 46.68C1.04445 45.9145 2.13667 45.2164 3.27 44.59C5.58 42.89 7.03 42.59 10.17 42.09C10.17 42.09 10.55 43.88 11.46 43.95C13.8636 44.0622 16.2055 44.748 18.29 45.95C19.29 47.2 19.97 52.1 20.03 52.81C20.03 53.1 19.47 54.15 18.72 52.7C18.7073 50.5509 18.0373 48.4572 16.8 46.7C16.1056 46.151 15.295 45.7679 14.43 45.58C15.503 46.0811 16.3714 46.9354 16.89 48C17.6375 49.382 18.1064 50.8973 18.27 52.46C18.27 52.67 17.27 54.61 16.27 50.9C15.9 49.6 14.99 47.9 13.69 47.72C12.95 47.61 10.8 46.85 7 48.9C8.19 48.24 14.5 46.37 15.37 50.75C14.348 51.0889 13.2766 51.2545 12.2 51.24C10.65 51.24 9.2 50.92 7.62 51.24C6.5 51.47 5.28 51.45 4.37 53.35C3.25 55.65 2.08 58 1.05 60.42C0.708517 61.2106 0.408117 62.0184 0.15 62.84C0.15 62.95 0.06 63.09 0 63.23V64.68C1.49 61.33 5.12 53.13 5.52 52.68C6.25661 52.2404 7.0848 51.9769 7.94 51.91C9.41 51.91 10.88 51.91 12.34 51.86C13.5055 51.6679 14.6945 51.6679 15.86 51.86L16.03 52.32H15.96C11.5 54.59 7.68 59 4.49 62.85C3.25251 64.1803 1.71223 65.1923 0 65.8L0 67C1.97669 65.8666 3.77035 64.4405 5.32 62.77C8.5 58.77 12.01 56.14 16.41 52.97C16.26 53.07 17.1 53.78 17.88 53.65L18.47 53.3C18.47 53.3 20.39 55.3 20.6 52.67C20.5289 50.7261 20.1265 48.8085 19.41 47C19.71 47.33 20.85 48.21 21.16 53.17C21.5288 53.3851 21.8496 53.6735 22.1024 54.0175C22.3553 54.3615 22.5349 54.7538 22.63 55.17C22.7089 54.7697 22.676 54.3554 22.5349 53.9726C22.3938 53.5898 22.1499 53.2533 21.83 53C21.43 52.75 21.47 52.27 21.48 51.87C21.5568 50.5288 21.2701 49.1917 20.65 48C20.1426 47.0751 19.4573 46.2596 18.6335 45.6006C17.8098 44.9416 16.8638 44.452 15.85 44.16C14.6445 43.8291 13.4078 43.6247 12.16 43.55C11.23 43.55 10.96 42.75 10.94 41.83C10.94 41.41 11.58 41.26 11.49 40.83C11.4 40.4 11.01 39.61 10.92 38.99C11.31 39.07 11.66 39.19 12.03 39.3C12.3441 39.4429 12.6849 39.5179 13.03 39.52C13.03 39.52 13.16 39.62 13.31 39.35C13.46 39.08 12.59 38.69 12.17 38.57C11.7381 38.4818 11.3356 38.2858 11 38C10.55 37.58 10.69 36.63 10.89 36.11L11.66 36.6C11.8531 36.6571 12.0558 36.6741 12.2557 36.6501C12.4556 36.6262 12.6485 36.5617 12.8226 36.4606C12.9967 36.3595 13.1483 36.2239 13.2683 36.0622C13.3882 35.9005 13.4738 35.716 13.52 35.52C13.3753 35.7145 13.1886 35.8738 12.9738 35.986C12.759 36.0983 12.5216 36.1606 12.2793 36.1682C12.037 36.1759 11.7962 36.1288 11.5747 36.0304C11.3532 35.932 11.1567 35.7849 11 35.6C10.7279 35.709 10.4897 35.8885 10.31 36.12C8.85 36.48 9.1 34.9 9.26 34.27C9.7 32.67 10.48 31.16 10.96 29.56C11.0941 28.764 11.1277 27.9544 11.06 27.15C11.06 25.15 12.74 21.78 12.94 21.42C13.1023 21.2057 13.3308 21.0511 13.59 20.98C13.78 20.98 14.7 20.79 14.59 20.33L12.53 20.2L11.95 20.59C12.253 20.6296 12.5512 20.7 12.84 20.8C12.0026 22.1781 11.3026 23.6351 10.75 25.15C10.75 23.99 11.26 21.29 11.25 21.01C11.24 20.73 11.03 20.41 10.96 20.08C10.82 19.53 11.39 19.19 11.82 18.89C14.1876 17.2564 16.9023 16.1952 19.75 15.79C27.46 14.69 33.26 17.55 34.98 18.88C36.2901 19.9585 37.3614 21.2979 38.1258 22.8129C38.8902 24.3279 39.3309 25.9854 39.42 27.68C38.7 29.22 37.98 31.48 37.35 32.99C35.02 38.66 38.35 39.91 38.35 39.99C36.93 38.99 37.35 35.08 37.91 32.99C38.2836 31.4593 38.7888 29.9637 39.42 28.52C39.2893 30.2134 39.2559 31.9128 39.32 33.61C39.48 35.61 39.37 39.37 45.23 40.22C45.98 40.49 44.85 37.97 44.85 37.97C44.21 36.11 43.05 36.31 43.05 36.31C42.0024 36.158 41.0035 35.768 40.13 35.17C39.9988 34.4532 39.9186 33.7281 39.89 33C40.5 32.84 42.65 33.87 42.65 33.87C44.79 34.87 43.7 32.37 43.7 32.37C43.7 30.58 42.45 31.04 42.45 31.04C41.5432 30.9639 40.6846 30.5994 40 30C40 29.19 40.07 28.36 40 27.56C40.49 27.32 41.66 27.94 41.66 27.94C43.2 28.94 42.74 27.15 42.74 27.15C42.66 25.97 41.13 25.9 41.13 25.9C40.562 25.8169 40.0396 25.5416 39.65 25.12C39.5297 24.6028 39.3727 24.0948 39.18 23.6C39.6915 23.9398 40.2838 24.1382 40.8967 24.1751C41.5097 24.212 42.1215 24.086 42.67 23.81C42.67 23.81 44.5 22.81 46.09 18.89C46.46 17.97 47.86 15.03 47.87 14.68C47.88 14.33 49.26 14.53 48.98 13.77C48.98 13.46 47.36 12.91 47.17 12.77C46.25 12.25 45.98 12.51 45.95 12.53C45.7 12.8 45.86 13.14 45.95 13.61C46.07 14.32 44.19 19.17 43.18 20.76C42.73 21.48 42.18 22.12 41.34 21.96C40.5 21.8 39.46 21.12 39.72 20.16C40.22 18.84 41.94 14.43 42.28 13.53C42.84 12.14 43.35 11.87 43.36 11.86C44.26 11.26 42.52 10.77 42.17 10.62C41.47 10.31 40.82 9.98 40.17 9.62C40.0124 9.55058 39.8422 9.51473 39.67 9.51473C39.4978 9.51473 39.3275 9.55058 39.17 9.62C38.85 9.93 39.17 10.51 39.24 10.92C38.8358 12.3813 38.3449 13.8171 37.77 15.22C37.33 16.4 36.37 19.01 36.32 19.15C35.609 18.5484 34.8305 18.0316 34 17.61L34.2 17.4C34.5034 16.7554 34.6046 16.0341 34.4904 15.3309C34.3761 14.6276 34.0518 13.9754 33.56 13.46C35.45 12.86 36.12 10.25 35.03 8.58C33.94 6.91 31.92 6.83 30.24 6.44C29.56 6.29 28.89 6.09 28.24 5.91C27.92 5.81 27 5.51 26.91 5.91L26.97 6.47C27.2747 7.34598 27.2853 8.29749 27 9.18C26.52 11.08 26 12.97 25.56 14.84C23.008 14.5098 20.4148 14.7384 17.96 15.51C17.9411 14.7604 18.015 14.0114 18.18 13.28C18.18 13.03 18.39 12.35 18.09 12.28C17.55 12.02 16.55 13.39 16.23 13.74C15.6408 14.4874 14.8334 15.0326 13.92 15.3C13.5 15.44 12.43 15.81 12.43 15.02C12.43 14.57 12.43 11.47 12.43 10.38C12.8722 10.2356 13.3518 10.2575 13.7789 10.4416C14.2061 10.6258 14.5514 10.9594 14.75 11.38C14.87 11.59 15.51 11.46 15.63 11.24C15.7672 10.2682 15.7672 9.28185 15.63 8.31C15.57 8.02 14.68 8.52 14.63 8.57C14.05 8.81 12.76 8.9 12.4 8.42C12.4 7.3 12.4 6.18 12.4 5.04C12.8359 5.0035 13.2741 5.0035 13.71 5.04C14.5215 5.0935 15.2937 5.40938 15.91 5.94C16.37 6.34 16.65 6.87 17.16 6.78C17.16 6.78 17.84 6.58 17.49 5.33C17.4011 4.78458 17.1928 4.26553 16.88 3.81C15.0834 3.55674 13.2738 3.4065 11.46 3.36C10.62 3.36 8.93 2.95 8.25 3.67C7.98 3.93 8.19 4.21 8.4 4.39C8.78545 4.83803 8.99823 5.40899 9 6C9.12 6.93 9.16 13.24 9.15 13.51C8.99074 14.6064 8.75008 15.6894 8.43 16.75C8.27 17.26 13.85 16.86 14.87 16.75C14.0496 17.1263 13.2486 17.5435 12.47 18C11.68 18.47 10.29 19.06 10.38 20.37C10.38 20.89 10.75 21.23 10.67 21.79C10.59 22.35 10.32 23.17 10.25 23.88C10.1433 24.9489 10.1668 26.0268 10.32 27.09C10.2 27.93 10.32 28.7 10.32 29.57C9.94379 30.7369 9.50311 31.882 9 33C8.72 33.87 8 35.08 8.6 35.95C8.82008 36.1848 9.10262 36.3519 9.4144 36.4316C9.72618 36.5113 10.0542 36.5004 10.36 36.4C10.36 36.4 9.43 38.09 10.43 38.69C10.1123 39.491 10.0427 40.3689 10.23 41.21C8.77237 41.4111 7.33632 41.7459 5.94 42.21C4.6006 42.7875 3.32947 43.5119 2.15 44.37ZM44.45 38.3C44.45 38.3 45.23 40.42 43.23 39.13C43.23 39.13 42.12 39.46 41.55 36.85C41.55 36.85 44.11 37.17 44.45 38.3ZM40.63 31.6C41.2228 31.718 41.7977 31.913 42.34 32.18C43.73 32.35 43.34 33.18 43.34 33.18C42.92 33.66 41.12 32.73 41.12 32.73C39.83 32.35 40.63 31.6 40.63 31.6ZM42.82 12.1H42.92L42.73 12.24L42.82 12.1ZM29.67 10.75C29.81 9.99 29.96 9.2 30.09 8.43L30.26 8.1C30.6465 8.06738 31.0349 8.13707 31.3859 8.30207C31.737 8.46707 32.0385 8.72158 32.26 9.04C32.82 10.21 32.26 12.04 30.91 12.18C30.46 12.18 29.75 12.18 29.54 11.66L29.67 10.75ZM29 13.41L29.11 13.14C29.7769 13.1168 30.4353 13.2945 31 13.65C31.77 14.18 31.26 15.46 30.95 16.24C30.17 15.96 29.4 15.73 28.64 15.51C28.7075 14.802 28.8278 14.1001 29 13.41Z" fill="#8E3F38"/>
<path d="M98.1 136.15L97.94 135.62C97.6504 135.994 97.3144 136.33 96.94 136.62C96.3136 137.132 95.5465 137.443 94.74 137.51C95.2348 136.907 95.636 136.233 95.93 135.51C96.06 134.99 95.65 134.51 95.93 134.09C96.21 133.67 97.15 131.63 97.79 130.44C100.2 125.8 101.62 120.14 100.79 114.86C101.348 114.596 101.869 114.259 102.34 113.86C102.804 113.446 103.176 112.938 103.43 112.37L103.67 111.28C103.367 111.885 102.949 112.425 102.44 112.87C101.234 113.978 99.8103 114.822 98.26 115.35C96.7591 115.88 95.2217 116.302 93.66 116.61C90.314 116.926 87.13 118.2 84.49 120.28C84.61 120.2 84.25 120.28 84 120.28C84.52 118.09 84.94 115.86 85.25 113.65C86.5073 104.756 86.3622 95.7193 84.82 86.87C84.82 86.79 81.53 71.09 77.28 63.52C70.7 51.67 63.68 40.85 51 32.46C50.57 32.18 69.66 47.24 79 69C78.69 68.63 76 66.32 73.75 68.27C73.44 68.55 72.56 70.64 74.16 71.73L74.56 71.84C74.478 72.0398 74.463 72.2608 74.517 72.4699C74.5711 72.679 74.6914 72.865 74.86 73V73.06C73.6313 74.7317 72.7319 76.622 72.21 78.63C71.9996 79.2215 71.948 79.8578 72.0603 80.4754C72.1726 81.093 72.4449 81.6705 72.85 82.15C73.85 83.15 77.05 83.45 77.05 83.45C77.05 83.45 78.46 98.45 78.47 104.51L72.16 110.07C71.9763 108.44 71.9195 106.799 71.99 105.16C72.1194 97.5352 71.2828 89.9246 69.5 82.51C68.6874 79.4415 67.5125 76.4807 66 73.69C66 73.69 68.3 80.38 69.11 83.62C70.7932 90.998 71.569 98.5539 71.42 106.12C71.42 107.54 71.56 109.12 71.56 110.58C71.56 110.83 71.56 111.08 71.86 110.95C72.16 110.82 78.48 104.95 78.59 104.95C78.82 105.77 79.13 106.41 80.01 106.52C80.6052 106.554 81.2021 106.497 81.78 106.35C82.2997 106.153 82.858 106.078 83.4113 106.132C83.9646 106.185 84.498 106.366 84.97 106.66C84.97 106.91 84.97 107.16 84.91 107.4C84.01 107.03 82.72 108.03 82.43 107.87C83.63 108.56 84.17 107.54 84.85 107.98C84.85 108.46 84.77 108.98 84.72 109.43C84.31 109.1 83.89 108.72 83.89 108.72C84.0998 109.197 84.3614 109.65 84.67 110.07C84.59 110.65 84.52 111.14 84.45 111.71C84.37 111.64 83.1 111.05 82.94 110.14L82.44 110.09C82.02 110.57 83.5 111.9 84.44 112.09C84.32 113.09 84.22 113.75 84.09 114.58C83.09 114.88 81.58 115.26 81.25 114.84C81.49 114.76 82.45 113.99 82.25 114.02C81.57 114.15 80.4 113.23 80.4 113.23C80.4 113.63 80.58 114.03 80.62 114.4C79.8578 114.291 79.0898 114.227 78.32 114.21C77.8412 114.234 77.387 114.429 77.04 114.76C75.5392 116.567 73.9082 118.261 72.16 119.83C71.91 119.57 72.02 119.15 72.16 118.83C73.16 115.7 71.85 114.06 71.85 114.06C71.98 115.93 71.43 117.71 70.28 121.95C69.97 123.15 73.18 121.07 74.11 119.95C77.4 116.05 78.29 116.86 78.33 116.82C77.8919 120.984 77.1262 125.107 76.04 129.15C75.56 131.15 75.1 133.15 74.44 135.05C74.1959 135.627 74.0408 136.237 73.98 136.86C73.98 138.42 75.98 137.86 77.11 137.45C72.6871 146.643 66.5507 154.907 59.03 161.8C57.3 163.39 55.54 164.89 53.79 166.3C51.79 165.2 53.94 159.3 54.51 157.83C55.95 153.98 57.91 150.33 59.62 146.6C60.48 144.75 61.19 142.82 62.12 141.02C64.3 136.75 64.35 135.64 64.32 135.61C65.0174 135.523 65.6796 135.254 66.24 134.83C66.16 135.26 63.69 141.33 62.56 144.01C61.43 146.69 60.28 149.12 59.07 151.65C58.19 153.52 57.07 155.26 56.15 157.12C54.8168 159.724 53.9439 162.539 53.57 165.44C53.57 165.3 54.02 166.03 54.15 165.08C54.76 160.23 57.79 156.45 59.84 152.17C62.3896 147.041 64.5458 141.726 66.29 136.27C66.6515 135.24 66.8767 134.168 66.96 133.08C66.96 132.57 67.33 132.36 67.67 131.97C68.2954 131.35 68.6542 130.51 68.67 129.63L68 130C67.9739 130.741 67.687 131.449 67.19 132C67.03 132.25 66.25 132.87 66.29 133.17C66.311 133.579 66.2774 133.99 66.19 134.39C66.12 134.39 64.51 135.49 63.84 135.14C63.47 134.94 63.31 134.59 62.97 134.39C61.91 133.75 60.25 134.22 59.29 134.81C57.8 135.81 55.07 137.99 54.78 136.25C55.4 136.41 56.35 135.81 57.46 134.82C59.55 132.96 63.8 132.4 63.8 132.4C63.92 132.1 65.06 131.64 65.06 131.64C63.71 131.48 59.76 132.53 55.88 135.3C56.9574 134.296 57.7831 133.053 58.29 131.67C60.3535 130.437 62.3044 129.025 64.12 127.45C65.12 126.45 64.98 127.38 65.61 126.04C67.54 121.92 68.52 115.91 69 111.31C69.6545 105.321 69.547 99.2724 68.68 93.31C67.8179 86.646 65.9956 80.1419 63.27 74L63.99 73.61C64.3 73.4 64.41 72.61 63.87 72.86C60.01 74.5 53.23 74.86 51.64 74.66C50.6872 74.696 49.7579 74.3587 49.05 73.72C48.79 73.41 46.98 69.36 47.13 68.63C56.39 69.57 60.13 66.24 60.8 64.33C61.2 63.15 58 57.62 57.5 56.89C53 42.54 59.26 42.24 59.47 42.17C59 42.22 52 41.29 56 54.65C53.8811 51.3535 51.3879 48.3133 48.57 45.59C48.9083 46.1581 49.2057 46.7496 49.46 47.36C47.3506 46.4261 45.1944 45.6017 43 44.89C42.75 44.39 42.51 43.89 42.25 43.35C46.67 45.35 47.71 43.89 47.91 43.82C46.77 44.17 42.49 42.55 41.47 41.58C40.86 40.17 39.75 37.4 39.65 37.42C40.46 39.81 40.98 42.5 42.1 44.75C41.8433 44.6999 41.5945 44.6159 41.36 44.5C40.84 44.26 39.42 42.5 38.92 42.22C38.62 42.07 39.27 43.46 38.92 43.31C38.78 43.24 37.05 41.01 36.71 40.86C36.37 40.71 36.84 42.32 36.5 42.19C35.23 41.67 32.35 40.57 32.37 38.65C32.75 38.53 33.12 37.09 33.37 36.32C34.32 35.78 35.13 33.19 35.18 32.63L35 32.51C34.7214 33.0413 34.3861 33.5408 34 34C34.0955 33.5272 34.0359 33.0362 33.83 32.6C33.41 31.89 30.36 31 30 30.9H29.25C29.15 30.9 31.16 31.64 32.07 32.12C33.71 32.98 32.87 35.53 32.84 35.67C32.4118 35.0082 31.8539 34.4401 31.2 34C30.7572 33.6345 30.2894 33.3004 29.8 33C29.56 32.9 29.47 33.26 29.45 33.23C29.96 33.64 31.05 34.71 31.15 34.8C31.6789 35.3364 32.0969 35.9719 32.38 36.67C32.3104 37.077 32.2101 37.4781 32.08 37.87C31.6563 37.0346 31.1397 36.2496 30.54 35.53C29.3533 34.267 27.916 33.2656 26.32 32.59C23.77 31.5 20.63 28.07 19.81 26.67C21.11 28.92 22.66 31.44 24.97 32.56C26.27 33.19 28.18 34.23 28.17 34.26C27.63 36.26 25.36 37.75 24.58 37.52C25.1053 37.6376 25.651 37.6291 26.1725 37.4952C26.6939 37.3614 27.1762 37.106 27.58 36.75C28.1657 36.2439 28.6478 35.6293 29 34.94C30.092 36.0858 31.0238 37.3741 31.77 38.77C31.62 39.45 32.54 40.77 32.94 41.16C34.83 42.95 37.45 43.84 39.83 44.68C41.66 45.33 48.38 47.5 49.83 48.21C49.93 48.39 55.08 55.1 56.83 58.87C57.6941 60.9275 58.4452 63.0306 59.08 65.17C55.84 68.31 47.64 68.26 47.64 68.26C47.64 68.26 46.7 66.26 46.1 66.58C46.1 66.58 44.56 64.06 44.32 64.47C45.2689 66.4816 45.6954 68.6999 45.56 70.92C45.56 70.92 45.82 72.77 46.22 71.99C46.22 71.99 46.22 70.11 47.04 71.18C47.3991 71.8854 47.7195 72.6098 48 73.35C48.13 74.23 49.82 75.2 49.84 75.2C50.3795 77.5546 51.2659 79.8159 52.47 81.91C52.82 82.97 55.21 87.91 55.85 89.46C56.3836 91.0116 56.7196 92.6243 56.85 94.26C57.25 96.86 58.67 110.77 58.67 110.77C58.6425 114.414 58.1519 118.04 57.21 121.56C56.6264 123.457 55.548 125.165 54.0858 126.508C52.6236 127.851 50.8302 128.78 48.89 129.2C47.934 129.346 46.9668 129.406 46 129.38C47.9958 128.126 49.4619 126.183 50.12 123.92C50.12 124.08 46.73 128.78 44.04 129.44C45.4783 128.123 46.7179 126.603 47.72 124.93C48.21 124.18 48.6 123.26 49.03 122.46C49.5054 121.141 49.6294 119.721 49.39 118.34C49.8953 119.149 50.2352 120.049 50.39 120.99C50.39 120.9 50.79 121.61 50.85 120.85C50.93 119.32 49.7 117.47 48.79 116.3C47.88 115.13 47.18 114.1 46.27 113.11C44.5183 111.148 42.1843 109.799 39.61 109.26C39.19 109.2 36.61 107.41 35.61 106.94C34.3415 106.367 32.9924 105.993 31.61 105.83C31.2731 105.746 30.9589 105.589 30.69 105.37C28.48 103.94 24.9 105.31 24.9 105.37C23.57 104.37 19.31 102.27 19.31 102.27C19.7752 100.433 20.4707 98.6625 21.38 97C22.19 95.39 24.38 91.7 24.51 91.43C23.6366 89.6752 22.9882 87.8172 22.58 85.9C24.1444 85.6694 25.615 85.012 26.83 84C26.66 84.13 20.16 87.33 17.18 82.67L16.38 82.18C16.1251 81.9342 15.93 81.6331 15.81 81.3C15.7557 80.8399 15.7965 80.3736 15.93 79.93C15.93 79.71 16.93 75.34 17.03 74.28C17.36 72.09 15.89 69.87 14.22 68.66C15.2259 69.8164 15.9605 71.1831 16.37 72.66C13.85 73.04 11.62 74.78 9.37 75.72C6.39 76.9 4.88 78 2.08 78.92C1.67 79.06 0.94 79.28 0 79.51V80.6H0.39C4.54 80.7 8.85 80.99 12.25 80.4C9.06 80.4 5.9 80.4 2.72 80.27C3.04 80.21 14.72 74.59 16.51 74.21C16.4997 74.5831 16.4392 74.9531 16.33 75.31C15.9446 76.8547 15.6508 78.4207 15.45 80C15.45 80.4 15.18 80.76 15.17 81.17C15.17 82.32 16.28 82.59 16.89 83.33C17.4841 84.1002 18.2396 84.7311 19.1033 85.1785C19.967 85.6259 20.9181 85.879 21.89 85.92C22.2781 87.9512 22.9514 89.9173 23.89 91.76C23.89 91.76 20.15 97.49 18.79 102.1C18.49 101.99 17.07 101.66 17.03 101.42C16.7146 100.096 16.0949 98.8631 15.22 97.82C14.68 97.12 14.09 96.25 13.22 96.16L11.22 95.96L0 94.8V95.26C4.27 95.72 8.55 96.18 12.83 96.55C14.47 96.67 16.39 101.01 16.47 101.73C12.4907 100.839 8.41618 100.446 4.34 100.56C3.13 100.56 1.41 100.46 0 100.56V101.14C0.23 101.14 0.48 101.14 0.75 101.14C2.57 101.14 5.38 101.14 7.02 101.24C13.29 101.49 20.02 102.14 25.02 106.24C28.1915 109.51 30.9949 113.119 33.38 117C34.58 119.71 33.7 119.67 33.51 119.89C32.7491 120.091 31.9668 120.198 31.18 120.21C28.86 120.14 26.63 120.31 24.31 120.21L7.66 119.74C7.42 119.74 7.3 119.74 7.15 119.61C5.78 118.13 4.41 116.61 3.03 115.16C2.03 114.07 1.03 112.98 0.03 111.88V112.88C2.89 116 6.92 120.37 7.03 120.37C12.47 120.52 9.97 120.73 21.4 121.06C22.49 121.06 34.15 121.22 34.86 120.21C35.33 119.54 34.86 117.76 34.62 117.14C33.9925 115.781 33.2143 114.496 32.3 113.31C31.48 112.2 30.6 111.13 29.69 110.1C31.51 111.1 32.93 113.18 34.15 114.71V114.33C31.65 109.33 28.48 108.7 28.47 108.7C28.02 108.26 27.59 107.8 27.14 107.34C26.7118 106.883 26.2506 106.459 25.76 106.07C28.18 104.84 30.54 106.13 30.93 106.17C32.24 106.309 33.5213 106.646 34.73 107.17C35.73 107.59 38.48 109.42 38.94 109.58C41.2614 110.379 43.3687 111.699 45.1 113.44C45.99 114.35 47.02 115.28 47.86 116.26C48.5403 117.55 48.8307 119.011 48.6957 120.463C48.5608 121.915 48.0064 123.297 47.1 124.44C46.46 125.28 43.36 130.18 38.86 129.57C37.31 129.63 35.73 129.64 34.16 129.64C29.1 129.64 14.37 128.51 12.16 127.95C10.0546 127.491 8.17817 126.305 6.86 124.6C5.43 122.8 3.72 121.31 2.33 119.47C1.60611 118.564 0.828016 117.702 0 116.89L0 117.76C0.78 118.76 1.54 119.7 1.89 120.12C3.22 121.7 6.27 126.12 8.17 127.55V128.2C4.84371 126.756 2.00628 124.381 0 121.36L0 122.11L1 123.62L0 122.91V125C1.743 125.618 3.41836 126.412 5 127.37C3.35458 126.938 1.68498 126.604 0 126.37L0 127.55H0.77C1.96 127.55 2.99 128.08 4.16 128.21C4.68121 128.264 5.20612 128.152 5.66 127.89C6.01877 128.148 6.40036 128.372 6.8 128.56C9.25 131.56 10.99 135.56 10.38 139.61C9.85 143.1 6.52 145.34 3.31 145.79C3.31 145.79 7.81 146.66 10.12 143.26C12.64 139.56 10.69 133.63 10.68 133.58C11.7407 134.71 12.5277 136.069 12.9802 137.551C13.4328 139.034 13.5387 140.6 13.29 142.13C12.9902 144.298 12.4225 146.421 11.6 148.45C11.4158 148.894 11.1845 149.316 10.91 149.71L10.55 150.19C10.61 150.19 13.46 148.43 14.11 141.68C14.11 142.03 14.2 142.38 14.22 142.68C14.47 145.48 14.22 149.92 15.22 151.55C14.9315 148.991 14.9315 146.409 15.22 143.85C15.78 144.45 18.8 147.63 18.96 147.95C19.56 149.25 16.31 153.27 16.29 154.24C16.29 154.84 16.94 158.72 17.16 160.02C17.5441 162.518 18.1807 164.971 19.06 167.34C19.86 169.34 21.4 171.04 21.87 173.2C22.0934 174.176 22.0227 175.197 21.6668 176.133C21.3108 177.069 20.6856 177.879 19.87 178.46C19.66 178.62 12.17 182.95 11.81 183.27C9.92 184.94 6.42 185.42 6.4 185.44C6.38 185.46 4.89 186.62 3.94 186.44C2.45 186.22 4.13 184.77 4.68 184.27C4.68 184.27 2.12 186.16 1 186C0.05 185.84 0.13 185.25 0.74 184.8C1.63 184.16 2.74 183.2 2.74 183.2C2.74 183.2 1 184.28 0 184.83V186.28C0.433205 186.494 0.918628 186.579 1.39887 186.526C1.87911 186.473 2.33409 186.284 2.71 185.98C2.59 187.55 4.03 187.38 5.27 186.98C5.64565 186.857 6.01306 186.71 6.37 186.54L7 186.2C9.1185 185.983 11.1002 185.052 12.62 183.56L18.79 182.68C19.31 183.46 20.44 183.02 20.79 182.89C20.8162 183.122 20.903 183.343 21.0416 183.531C21.1803 183.719 21.366 183.867 21.58 183.96C21.9004 184.134 22.2349 184.282 22.58 184.4C23.1495 184.569 23.7514 184.599 24.3347 184.486C24.9179 184.372 25.4652 184.12 25.93 183.75C27.1297 182.86 28.1338 181.734 28.88 180.44L29.08 180.13C43.08 176.01 56.08 167.26 65.82 156.19C74.4334 146.257 80.5619 134.418 83.7 121.65L85.23 120.6C84.97 121.06 85.03 121.45 84.57 122.39C84.11 123.33 84.92 122.54 84.92 122.54C86.5029 120.855 88.2517 119.334 90.14 118C89.7 119.09 90.47 121.37 90.31 122.94C90.0753 124.812 89.636 126.653 89 128.43C89 128.43 89 128.54 87 133.87C86.49 135.29 88.22 137.24 88.34 137.33C88.46 137.42 88.53 135.22 89.34 134.54C89.2249 134.147 89.201 133.733 89.27 133.33C89.38 132.84 93.97 121.79 96.53 117.75C97.4844 116.54 98.7646 115.627 100.22 115.12C100.214 115.146 100.214 115.174 100.22 115.2C100.3 115.75 100.35 116.29 100.38 116.84C100.64 121.56 99.01 126.16 96.86 130.33C96.0989 131.433 95.2672 132.485 94.37 133.48L93.75 133.36C93.7854 133.093 93.8746 132.835 94.0121 132.603C94.1496 132.371 94.3325 132.169 94.55 132.01C94.2464 132.127 93.9711 132.307 93.7419 132.538C93.5127 132.769 93.3348 133.046 93.22 133.35H92.9C93.4083 131.752 94.0575 130.203 94.84 128.72C95.7955 127.383 96.6194 125.956 97.3 124.46C98.12 122.46 98.84 119.93 99.47 117.87C99.4 118 99.19 117.43 98.85 118.23C97.91 120.35 95.85 122.54 95.39 125.04C95.39 124.88 95.77 125.58 95.97 124.68C96.35 123.01 96.6 123.41 96.9 123.68L96.52 124.55C96.1486 125.524 95.7005 126.467 95.18 127.37C94.66 128.09 93.11 130.44 92.68 131.17C92.25 131.9 92.07 132.51 91.68 133.17C90.9 134.74 89.15 136.03 89.1 137.73C89.1 137.73 89.42 137.81 89.66 137.39C90.4071 135.983 91.427 134.739 92.66 133.73C93.3834 133.704 94.0989 133.888 94.72 134.26C94.72 134.26 95.63 135.21 93.62 137.56C92.9305 137.514 92.2453 137.417 91.57 137.27C90.09 136.99 90.27 137.91 90.27 137.91C92.42 138.32 94.81 138.52 96.64 137.45C97.2075 137.117 97.7036 136.675 98.1 136.15ZM74.16 81.46L74.91 80.91L75.48 81.38C75.87 82.85 76.48 82.31 76.77 82.76C75.58 82.76 71.83 82.45 72.69 78.44C73.2763 76.6382 74.0752 74.9127 75.07 73.3C75.59 73.42 76.07 73.13 76.6 73.07C77.13 73.01 77.92 72.94 78.34 73.44C78.34 73.44 78.07 72.17 75.81 72.79C75.62 72.79 74.81 73.07 75.05 71.99C75.38 71.99 75.81 71.99 75.99 71.54C76.0473 71.362 76.1472 71.2006 76.2809 71.0699C76.4147 70.9392 76.5783 70.8431 76.7576 70.7899C76.9368 70.7367 77.1264 70.7281 77.3098 70.7647C77.4932 70.8013 77.6649 70.882 77.81 71C77.43 70.16 76.99 70 76.39 70.34C75.79 70.68 75.82 71.34 75.11 71.42C73.9 71.55 73.34 70.07 74.17 68.75C75 67.43 77.17 68.22 77.88 68.75C78.4542 69.1373 78.9841 69.5867 79.46 70.09C81.4283 75.3862 82.947 80.8388 84 86.39L83.45 86.53C83.0346 84.7791 82.2086 83.1522 81.0401 81.7837C79.8716 80.4153 78.3942 79.3445 76.73 78.66C78.55 79.59 82.33 83.42 82.91 86.77C82.58 86.02 77.26 78.16 73.91 80.26C73.08 80.82 74.16 81.44 74.16 81.46ZM82.26 105.74C81.66 105.85 79.09 106.66 78.9 104.42C78.9 98.42 77.51 82.76 77.15 80.96C77.6835 81.3168 78.1884 81.7147 78.66 82.15C79.6593 82.979 80.5438 83.9374 81.29 85C81.53 87.67 82.1 91.55 82.29 94.2C82.6583 98.0383 82.6482 101.904 82.26 105.74ZM83.34 105.57C83.8 101.82 82.71 88.3 82.73 88.42C82.9721 88.2661 83.2531 88.1844 83.54 88.1844C83.8269 88.1844 84.1079 88.2661 84.35 88.42C85.1384 94.1208 85.3562 99.886 85 105.63C84.4526 105.529 83.8933 105.508 83.34 105.57ZM10.34 184.4C10.8 184.11 11.22 183.75 11.65 183.4C11.2785 183.794 10.8505 184.131 10.38 184.4H10.34ZM57.28 137.09C58.0991 136.574 58.8573 135.967 59.54 135.28C60.05 134.871 60.6918 134.661 61.3452 134.69C61.9986 134.72 62.6189 134.986 63.09 135.44C63.04 135.44 62.47 136.16 62.19 136.44C60.8489 138.122 59.2121 139.546 57.36 140.64C55.61 141.64 48.51 139.07 51.04 135.23C51.3415 135.026 51.682 134.886 52.04 134.82C51.8501 135.181 51.7281 135.575 51.68 135.98C51.6263 136.177 51.6287 136.386 51.687 136.582C51.7452 136.778 51.8569 136.954 52.0096 137.09C52.1623 137.226 52.3499 137.317 52.5513 137.352C52.7528 137.387 52.9601 137.366 53.15 137.29C53.8124 137.585 54.5346 137.72 55.2588 137.685C55.9829 137.651 56.6889 137.447 57.32 137.09H57.28ZM58.48 98.09C58.31 96.88 58.3 95.65 58.23 94.4C58.0733 92.2922 57.7388 90.2014 57.23 88.15C57.75 88.69 59.07 89.68 59.12 89.74C58 88.5 54.29 84.14 53 81.38C51.9248 79.4956 51.1011 77.4784 50.55 75.38C54.6253 75.9808 58.7848 75.6108 62.69 74.3C65.69 80.7 67.33 87.94 68.33 94.98C68.7283 98.1971 68.882 101.44 68.79 104.68C68.7027 108.585 68.3081 112.477 67.61 116.32C67.1392 119.668 66.101 122.911 64.54 125.91C64.1852 126.543 63.7055 127.098 63.13 127.54C61.71 128.77 60.28 129.3 58.52 130.81L57.74 130.99C57.12 131.38 56.74 132.77 56.43 133.43C55.635 134.656 54.6414 135.741 53.49 136.64C52.92 137.04 52.2 137.01 52.27 135.64C52.27 135.12 57.08 127.72 57.55 127.01C57.918 126.38 58.4115 125.832 59 125.4C59.3054 125.249 59.5696 125.026 59.77 124.75C60.43 123.45 60.06 116.48 59.93 115.04C59.66 112.23 59.61 109.4 59.38 106.59C59.15 103.78 58.84 100.92 58.52 98.1L58.48 98.09ZM13.48 182.77L13.22 182.95L13.43 182.8L13.5 182.75L13.48 182.77ZM29.79 176.09C29.59 178.01 27.53 180.73 27.21 181.14C25.05 183.9 22.04 183.86 21.72 182.73C21.52 182.05 23.22 180.64 23.67 179.96C24.1877 179.049 24.4243 178.005 24.35 176.96C24.0568 178.252 23.3972 179.433 22.45 180.36C21.9524 181.091 21.3718 181.762 20.72 182.36C20.6298 182.436 20.5248 182.493 20.4117 182.527C20.2985 182.561 20.1796 182.571 20.0623 182.557C19.9451 182.543 19.832 182.505 19.73 182.445C19.6281 182.386 19.5396 182.305 19.47 182.21C18.98 181.28 19.61 181.01 19.47 181.09C21.85 179.9 22.47 178.64 22.56 177.31C22.3233 178.009 21.9505 178.655 21.4631 179.209C20.9756 179.763 20.3832 180.216 19.72 180.54C19.5188 180.592 19.3322 180.689 19.1744 180.824C19.0167 180.96 18.892 181.129 18.81 181.32C17.12 180.39 18.55 179.78 20.51 178.56C21.0542 178.118 21.5624 177.633 22.03 177.11C23.48 175.44 23.13 173.11 22.43 171.11C22.04 170.02 21.64 168.98 21.31 167.85C20.42 164.78 19.65 161.42 18.05 158.66C17.6713 158.073 17.413 157.417 17.29 156.73C17.1735 155.729 17.2242 154.715 17.44 153.73C18.1539 152.448 19.0092 151.251 19.99 150.16C21.44 152.93 26.18 153.16 27.3 153.49C28.4157 153.842 29.3791 154.561 30.033 155.531C30.6869 156.501 30.9925 157.664 30.9 158.83C30.7192 160.039 30.4005 161.223 29.95 162.36C29.27 164.79 27.95 167.15 28.13 169.72C28.3 171.06 30 174.86 29.84 176.1L29.79 176.09ZM30.58 178.54C30.24 178.66 30.18 178.39 30.17 178.15C32.17 175.27 29.64 170.28 29.67 169.67C29.67 168.33 30.57 163.05 30.87 161.74C31.24 160.04 32.05 158.55 31.72 156.74C31.4911 155.883 31.0694 155.09 30.487 154.421C29.9047 153.752 29.1772 153.225 28.36 152.88C27.59 152.49 22.27 152.03 20.6 149.09C20.6 149.09 21.09 148.67 18.37 145.81C17.26 144.63 16.17 143.42 15.06 142.24C14.5196 138.298 12.7488 134.627 10 131.75C9.53455 130.7 8.97211 129.696 8.32 128.75C8.73459 128.772 9.14936 128.711 9.54 128.57C9.38699 128.632 9.22489 128.669 9.06 128.68C9.44019 128.603 9.80083 128.45 10.12 128.23C9.98447 128.343 9.83691 128.44 9.68 128.52C9.89389 128.429 10.0955 128.311 10.28 128.17C11.2612 128.473 12.2641 128.7 13.28 128.85C15.85 129.22 18.41 129.59 21.01 129.85C23.61 130.11 26.45 130.47 29.19 130.68C31.93 130.89 34.6 130.87 37.31 130.93C39.85 130.93 42.41 130.98 44.96 130.83C47.0624 130.813 49.1536 130.52 51.18 129.96C55.45 128.48 58.02 122.36 58.71 122.82C59.18 123.13 58.84 124.68 58.36 124.98C58.14 125.2 56.45 127.16 52.36 134.34C51.6867 134.422 51.0691 134.755 50.63 135.272C50.1908 135.789 49.9624 136.452 49.99 137.13C49.99 140.53 56.09 142.6 57.35 142.02C59.303 141.121 61.065 139.854 62.54 138.29C61.8432 139.468 61.2605 140.711 60.8 142C60.18 143.9 55.08 154.48 53.43 158.68C52.6967 157.023 51.5201 155.601 50.03 154.57C49.2337 154.102 48.3752 153.748 47.48 153.52C46.54 153.2 44.91 152.74 44.42 151.71C44.37 151.61 44.32 141.2 43.99 137.71C43.8279 136.185 43.3256 134.715 42.52 133.41C42.45 133.32 43.96 138.05 43.29 141.08C43.05 142.16 43.52 146.2 43.72 149.6C42.4526 148.709 41.0471 148.034 39.56 147.6C39.319 147.512 39.1002 147.373 38.9188 147.191C38.7375 147.01 38.5979 146.791 38.51 146.55V146.49C38.2098 145.574 38.0744 144.613 38.11 143.65C38.11 142.35 38.33 141.1 38.43 139.81C38.5677 137.648 38.3618 135.478 37.82 133.38C37.82 133.43 37.96 138.03 37.82 140.16C37.76 141.45 37.51 142.71 37.49 143.99C37.47 145.27 37.6 147.38 39 147.99C40.6913 148.581 42.293 149.402 43.76 150.43C43.7897 150.903 43.7897 151.377 43.76 151.85C43.63 153.26 48.14 154.53 48.98 154.93C50.8412 155.898 52.3055 157.487 53.12 159.42C53.12 159.42 51 165 52.89 166.91C46.2404 172.113 38.6967 176.057 30.63 178.55L30.58 178.54ZM76.84 136.54C75.78 137.16 74.51 137.75 74.38 136.54C74.38 135.98 76.06 130.89 76.6 128.83C77.74 124.25 79.46 114.83 79.68 114.83C80.2989 115.074 80.9552 115.209 81.62 115.23C81.27 120.09 78.43 133.27 76.89 136.58L76.84 136.54ZM82.28 122.7C81.11 127.35 80.12 128.52 80.28 127.97C81.22 123.27 82.53 120.83 82.93 116.02C83.2077 115.948 83.4814 115.861 83.75 115.76C83.3965 118.109 82.9226 120.439 82.33 122.74L82.28 122.7ZM88.02 136.01C86.67 134.47 88.89 130.42 88.92 130.34C89.235 130.286 89.5434 130.199 89.84 130.08L89.96 130.03H90.05C88.7587 131.771 88.0642 133.882 88.07 136.05L88.02 136.01ZM94.02 120.76C93.505 121.963 92.9207 123.135 92.27 124.27C92.2007 124.188 92.1512 124.091 92.1251 123.987C92.0991 123.883 92.0974 123.775 92.12 123.67C92.2329 121.875 92.7128 120.122 93.53 118.52C93.53 118.52 92.04 119.05 90.06 129.6L89.06 129.89C89.26 129.38 89.42 128.89 89.6 128.36C90.2258 126.495 90.6417 124.567 90.84 122.61C91.23 118.03 94.19 116.77 94.38 116.9C94.6013 118.204 94.5053 119.541 94.1 120.8L94.02 120.76Z" fill="#8E3F38"/>
</g>
<defs>
<clipPath id="clip0_21_47">
<rect width="418.83" height="202.22" fill="white"/>
</clipPath>
</defs>
</svg>
