<svg width="148" height="18" viewBox="0 0 148 18" fill="none" xmlns="http://www.w3.org/2000/svg">
<g clip-path="url(#clip0_22_219)">
<path d="M9.38412 13.8599C10.2866 13.4191 11.0698 12.7754 11.6695 11.9815L11.9206 11.6732L10.1339 10.3859L9.89533 10.6818C9.45997 11.249 8.8838 11.6978 8.22149 11.9857C7.55918 12.2736 6.83271 12.391 6.11104 12.3268C5.38936 12.2626 4.69642 12.0188 4.09799 11.6187C3.49956 11.2186 3.01549 10.6754 2.69172 10.0406C2.36796 9.40588 2.21525 8.70065 2.24808 7.99187C2.2809 7.2831 2.49819 6.59429 2.8793 5.99084C3.26042 5.38738 3.79272 4.8893 4.42568 4.54387C5.05865 4.19843 5.77127 4.0171 6.49592 4.01709C7.15757 4.01153 7.81112 4.1598 8.40285 4.44969C8.99458 4.73959 9.5076 5.16285 9.89972 5.68467L10.1346 5.99132L11.9384 4.68693L11.6856 4.37762C11.0826 3.5863 10.2997 2.94325 9.39895 2.49937C8.49821 2.05549 7.50431 1.82296 6.49591 1.82019C4.77608 1.81979 3.1263 2.48733 1.90852 3.67638C0.690743 4.86544 0.0044076 6.47888 8.75746e-05 8.16277C-0.00453062 9.01409 0.173553 9.85687 0.522803 10.6365C0.835292 11.3998 1.30879 12.09 1.91235 12.6619L1.91556 12.6651C2.51413 13.2579 3.22765 13.7276 4.01421 14.0467C4.80077 14.3659 5.64452 14.5279 6.49591 14.5233C7.4985 14.5273 8.48796 14.3 9.38412 13.8599ZM16.2198 14.3347V2.19748H13.9582V14.3347H16.2198ZM29.0239 14.3347V2.19743H26.7626V10.2958L21.172 2.19743H18.9599V14.3347H21.221V6.21972L26.8297 14.3347H29.0239ZM39.7195 14.3347V12.1549H34.0031V8.42873H39.1234V6.23188H34.0031V4.34345H39.8772V2.19743H31.7418V14.3347H39.7195ZM53.3066 14.3347V2.19743H51.1638L47.7572 6.77731L44.351 2.19743H42.2253V14.3347H44.4692V6.07319L47.7573 10.4933L51.0627 6.07381V14.3347H53.3066ZM63.8554 14.3347L62.5752 11.0384H58.3765L57.0789 14.3347H54.6662L59.4367 2.19752H61.4974L66.2853 14.3347H63.8554ZM61.6973 8.85861L60.4758 5.72423L59.2547 8.85861H61.6973ZM75.2929 14.3348L70.8565 8.36012H69.7905V14.3347H67.5991V7.07677L67.5995 2.19764H73.44C73.8528 2.197 74.2614 2.27765 74.6417 2.43479C75.022 2.59193 75.3661 2.82234 75.6536 3.11232C75.949 3.39416 76.1838 3.73105 76.3441 4.10313C76.5044 4.47522 76.587 4.87496 76.587 5.27879C76.587 5.68262 76.5044 6.08236 76.3441 6.45445C76.1838 6.82653 75.949 7.16342 75.6536 7.44526C75.0922 8.01134 74.3266 8.33939 73.521 8.35902L77.9546 14.3348H75.2929ZM73.44 6.21412C73.6907 6.21342 73.931 6.11661 74.1096 5.94445C74.2882 5.77229 74.3908 5.53847 74.3954 5.29313V5.26445C74.3908 5.0191 74.2882 4.78528 74.1096 4.61311C73.931 4.44094 73.6907 4.34413 73.44 4.34343H69.7904V6.21412H73.44ZM91.1642 14.3347L85.388 6.38969L89.9117 2.19745H86.6736L81.6323 6.83809V2.19743H79.3881V14.3347H81.6323V9.82694L83.6816 7.92576L88.3444 14.3347H91.1642Z" fill="black"/>
<path d="M105.771 0.828857V5.82008H102.455V0.828857H99.1641V14.4377H102.455V9.10649H105.771V14.4377H109.058V0.828857H105.771Z" fill="black"/>
<path d="M114.986 4.06128C111.961 4.06128 109.512 6.51008 109.512 9.53043C109.512 12.5508 111.961 15.0045 114.986 15.0045C118.011 15.0045 120.455 12.5557 120.455 9.53043C120.455 6.50515 118.006 4.06128 114.986 4.06128ZM114.966 11.4372C113.838 11.4372 112.926 10.5208 112.926 9.39247C112.926 8.26415 113.843 7.35263 114.966 7.35263C116.089 7.35263 117.006 8.26415 117.006 9.39247C117.006 10.5208 116.089 11.4372 114.966 11.4372Z" fill="black"/>
<path d="M130.805 1.19897V9.33372C130.805 9.33372 130.436 14.7487 136.56 14.5812L137.723 11.4623C137.723 11.4623 135.033 11.9993 134.407 10.4423C134.407 10.4423 134.067 9.87571 134.234 7.57473H136.59V4.74161H134.18V1.19897H130.805Z" fill="black"/>
<path d="M140.803 11.2201C140.941 12.3582 141.429 12.8362 142.424 12.9396C143.212 13.0234 144.016 12.8362 144.016 11.8359C144.016 10.9688 143.222 10.752 141.247 10.3135C139.655 9.94884 138.064 9.36744 138.064 7.54439C138.064 4.89357 140.276 4.21362 142.424 4.21362C144.572 4.21362 146.632 4.97733 146.844 7.52468H143.759C143.538 6.44563 142.892 6.17956 142.247 6.17956C141.601 6.17956 141.01 6.39143 141.074 7.08616C141.143 7.78582 142.365 7.88929 143.937 8.27361C145.548 8.653 147.115 9.6138 147.115 11.5452C147.115 14.2749 144.829 15.1569 142.542 15.1569C140.256 15.1569 137.95 14.1862 137.832 11.4368L140.798 11.2299L140.803 11.2201Z" fill="black"/>
<path d="M120.828 4.53394H124.312V10.5943C124.312 10.5943 124.4 11.156 125.563 11.156C126.726 11.156 126.874 10.5943 126.874 10.5943V4.53394H130.2V13.9842C130.2 13.9842 130.229 14.5213 130.042 15.2554C129.623 16.8765 128.13 19.276 122.863 19.1676C122.247 19.1676 120.853 19.1578 120.853 19.1578V15.9699C120.853 15.9699 121.74 15.965 122.833 15.9551C125.036 15.9551 126.509 15.7827 126.81 13.9793C126.81 13.9793 122.114 15.8073 121.05 12.1907C121.05 12.1907 120.838 11.5108 120.838 9.43154V4.53394H120.828Z" fill="black"/>
</g>
<defs>
<clipPath id="clip0_22_219">
<rect width="148" height="18" fill="white"/>
</clipPath>
</defs>
</svg>
