<?xml version="1.0" encoding="UTF-8"?> <svg xmlns="http://www.w3.org/2000/svg" height="30" viewBox="0 0 444.376 64.458"><g fill="currentColor"><path d="m102.211 34.17c0 10.135-7.419 15.435-15.071 15.435-7.745 0-15.164-5.301-15.164-15.435l.037-32.35h-18.259l-.253 32.856c0 17.65 14.137 29.907 33.452 29.907s33.453-12.257 33.453-29.907l.154-31.83h-18.477z"></path><path d="m188.912 3.639-20.805 32.528-21.365-32.528h-15.209v59.113h17.076v-28.896l15.113 23.069h8.211l15.206-23.912.187 29.739h16.983l-.188-59.113z"></path><path d="m218.01 3.639h18.475v59.113h-18.475z"></path><path d="m19.08 0h-19.08v62.752h19.08 34.422l-9.309-17.56h-25.113z"></path><path d="m246.712 16.897h19.405v45.855h18.475v-45.855h19.968v-13.258h-57.848z"></path><path d="m426.275 3.069v32.07l-28.832-31.5h-15.21v59.113h18.102v-31.498l28.833 31.498h15.208v-59.683z"></path><path d="m339.709 2.776c-19.643 0-34.113 13.054-34.113 30.858s14.47 30.86 34.113 30.86 34.114-13.056 34.114-30.86-14.47-30.858-34.114-30.858zm0 47.814c-9.294 0-16.574-6.698-16.574-16.956s7.28-16.954 16.574-16.954 16.575 6.696 16.575 16.954-7.279 16.956-16.575 16.956z"></path></g></svg> 