<?xml version="1.0" encoding="utf-8"?>
<!-- Generator: Adobe Illustrator 24.2.3, SVG Export Plug-In . SVG Version: 6.00 Build 0)  -->
<svg version="1.1" id="Capa_1" xmlns="http://www.w3.org/2000/svg" xmlns:xlink="http://www.w3.org/1999/xlink" x="0px" y="0px"
	 viewBox="0 0 625.4 249.3" style="enable-background:new 0 0 625.4 249.3;" xml:space="preserve">
<style type="text/css">
	.st0{fill:#242C4F;}
	.st1{fill:none;stroke:#272D4E;stroke-width:1.3426;stroke-miterlimit:10;}
	.st2{fill:#272D4E;}
	.st3{fill:#9491A7;}
	.st4{fill:none;stroke:#FFFFFF;stroke-width:1.1313;stroke-miterlimit:10;}
	.st5{fill:#FFFFFF;}
</style>
<g>
	<line class="st1" x1="259.2" y1="204.6" x2="610.6" y2="204.6"/>
	<g>
		<path class="st2" d="M263.3,223.1l3.6-0.1c0.4,0,2.6-0.1,3.1-0.1c2.7,0,4.6,0.3,6.2,0.9c3.1,1.3,5,4.4,5,7.9
			c0,3.9-2.2,6.3-4.3,7.2c-2.1,0.9-4.2,1-5.8,1h-7.7v-1.1c2.2,0,2.5-0.6,2.5-2v-10.7c0-1.3-0.2-2-2.5-2V223.1z M269.3,236.2
			c0,1.7,0,2.5,2.2,2.5c4.5,0,5.5-4.1,5.5-7c0-3.6-1.5-6-3.7-6.9c-1.1-0.4-2.1-0.5-4-0.5V236.2z"/>
		<path class="st2" d="M293.8,222.8c7.6,0,9.5,5.7,9.5,8.8c0,4.5-3.2,8.8-9.4,8.8c-6.7,0-9.4-4.8-9.4-8.8
			C284.4,227.2,287.5,222.8,293.8,222.8z M293.9,238.9c5.2,0,5.4-5.6,5.4-7.3c0-3.4-1-7.2-5.4-7.2c-4.6,0-5.4,4-5.4,7.2
			C288.5,233.4,288.6,238.9,293.9,238.9z"/>
		<path class="st2" d="M309.9,226.3v10.1c0,1.7,0,2.5,2.5,2.5v1.1h-6.3v-1.1c2.4,0,2.4-0.8,2.4-2.5v-9.6c0-1.8,0-2.5-2.4-2.5v-1.1
			h6.2l5.6,11.9l5.6-11.9h6v1.1c-2.2,0-2.5,0.7-2.5,2v10.6c0,1.2,0.2,2,2.5,2v1.1h-8.5v-1.1c2.2,0,2.4-0.7,2.4-2v-10.6l-6.4,13.7
			h-0.8L309.9,226.3z"/>
		<path class="st2" d="M331.6,223.2h8.6v1.1c-2.2,0-2.5,0.6-2.5,2v10.6c0,1.3,0.2,2,2.5,2v1.1h-8.6v-1.1c2.2,0,2.5-0.6,2.5-2v-10.6
			c0-1.3-0.2-2-2.5-2V223.2z"/>
		<path class="st2" d="M345.9,236.4c0,1.8,0.1,2.5,2.5,2.5v1.1h-6.3v-1.1c2.4,0,2.4-0.8,2.4-2.5v-8.6c0-2.2-0.1-3.2-2.3-3.4v-1.1
			h4.9l9.6,11.4v-7.7c0-1.6-0.1-2.5-2.4-2.5v-1.1h6.3v1.1c-2.5,0-2.5,0.7-2.5,2.5v13.4H357l-11.1-13.1V236.4z"/>
		<path class="st2" d="M381.6,232.2v1.1c-1.4,0.2-1.7,0.4-1.7,1.9v4c-0.9,0-1.9,0-3.9,0.5c-1.5,0.3-2.6,0.6-4.1,0.6
			c-5.8,0-8.6-4.6-8.6-8.7c0-5,3.9-8.8,8.6-8.8c1.1,0,3.1,0.2,5.2,2c0.3-0.5,0.4-0.9,0.5-1.5h1.2l0.1,5.5h-1.1
			c-0.5-2.5-2.5-4.6-5.2-4.6c-2.3,0-5.3,1.4-5.3,7.2c0,2.8,0.6,7.4,5.1,7.4c3.5,0,3.9-2,3.9-3.4c0-1.5-0.2-2-2.2-2v-1.1H381.6z"/>
		<path class="st2" d="M393.2,222.8c7.6,0,9.5,5.7,9.5,8.8c0,4.5-3.2,8.8-9.4,8.8c-6.7,0-9.4-4.8-9.4-8.8
			C383.8,227.2,386.9,222.8,393.2,222.8z M393.3,238.9c5.2,0,5.4-5.6,5.4-7.3c0-3.4-1-7.2-5.4-7.2c-4.6,0-5.4,4-5.4,7.2
			C387.9,233.4,388,238.9,393.3,238.9z"/>
		<path class="st2" d="M418.8,236.9c0,1.1,0.1,2,2.3,2h0.4v1.1h-8.7v-1.1c2.2,0,2.4-0.7,2.4-2v-10.6c0-1.2-0.2-2-2.4-2v-1.1h13.8
			l0.1,4.4h-1.2c-0.7-3-2-3-3.8-3h-3v6h1.6c1.4,0,1.9-0.3,2-2.1h1.1v5.6h-1.2c-0.1-1.8-0.4-2.1-2-2.1h-1.5V236.9z"/>
		<path class="st2" d="M427.6,236.6c1.1,0,2,0.9,2,2c0,1.1-0.9,1.9-2,1.9c-1,0-1.9-0.8-1.9-1.9S426.5,236.6,427.6,236.6z"/>
		<path class="st2" d="M441,234h1.1c0.5,1.9,1.7,5,4.9,5c1.7,0,2.8-1.1,2.8-2.5c0-1.6-1.3-2.2-3.9-3.5c-4.3-2-4.9-4-4.9-5.5
			c0-2.2,1.8-4.7,5.1-4.7c1.6,0,3.1,0.8,4.1,2c0.1-0.3,0.3-0.7,0.4-1.5h1.2v4.7h-1.2c-0.3-0.8-1.2-3.9-4.3-3.9
			c-1.5,0-2.5,0.9-2.5,2.1c0,1.6,1.4,2.2,3.8,3.3c2.8,1.3,5.4,2.6,5.4,5.5c0,1.9-1.7,5.2-5.5,5.2c-1.7,0-3.6-0.7-4.9-2.3
			c-0.1,0.3-0.4,0.8-0.5,1.7H441V234z"/>
		<path class="st2" d="M459.5,236.4c-0.2,0.5-0.4,0.9-0.4,1.3c0,1.1,1.4,1.1,1.9,1.1v1.1h-5.8v-1.1c1.3,0,2-0.6,3.1-3.3l4.9-12.8
			h1.2l5.2,13.2c0.8,2.1,1.1,2.9,2.8,2.9v1.1h-8v-1.1c1,0,1.9,0,1.9-0.8c0-0.2,0-0.4-0.2-0.8l-0.8-2h-5.5L459.5,236.4z M460.4,234.1
			h4.5l-2.3-5.9L460.4,234.1z"/>
		<path class="st2" d="M480.2,236.9c0,1.3,0.2,2,2.5,2v1.1h-8.5v-1.1c2.2,0,2.4-0.7,2.4-2v-10.7c0-1.3-0.2-2-2.4-2v-1.2l3.9-0.1
			c0.6,0,2-0.1,3.4,0c1.5,0.1,3,0.2,4.1,0.4c1.8,0.5,3.7,1.8,3.7,4.3c0,1.7-1,3.3-3.7,4.1c1.3,0.8,1.9,1.7,3.5,4.2
			c1.6,2.4,2.1,2.8,3.3,2.9v1.1h-4.5c-0.7-0.8-1.4-2-2.1-3.2l-1.1-1.9c-1.4-2.3-1.5-2.5-3.8-2.5h-0.6V236.9z M480.2,231.1h0.8
			c1.6,0,4.4,0,4.4-3.5c0-3.4-3.1-3.4-5.2-3.3V231.1z"/>
		<path class="st2" d="M497.9,226.3v10.1c0,1.7,0,2.5,2.5,2.5v1.1h-6.3v-1.1c2.4,0,2.4-0.8,2.4-2.5v-9.6c0-1.8,0-2.5-2.4-2.5v-1.1
			h6.2l5.6,11.9l5.6-11.9h6v1.1c-2.2,0-2.5,0.7-2.5,2v10.6c0,1.2,0.2,2,2.5,2v1.1H509v-1.1c2.2,0,2.4-0.7,2.4-2v-10.6l-6.4,13.7
			h-0.8L497.9,226.3z"/>
		<path class="st2" d="M519.6,223.2h8.6v1.1c-2.2,0-2.5,0.6-2.5,2v10.6c0,1.3,0.2,2,2.5,2v1.1h-8.6v-1.1c2.2,0,2.5-0.6,2.5-2v-10.6
			c0-1.3-0.2-2-2.5-2V223.2z"/>
		<path class="st2" d="M545.3,240.1h-15.1v-1.1c2.2,0,2.5-0.7,2.5-2v-10.6c0-1.2-0.1-2-2.5-2v-1.1h14l0.2,4.4h-1.1
			c-0.8-3-1.9-3-3.9-3h-3.2v6h1.7c1.7,0,2.1-0.3,2.2-2.1h1.2v5.6h-1.1c-0.1-1.9-0.6-2.1-2.2-2.1h-1.7v4c0,2.2,0,2.8,2.4,2.8h1.4
			c1,0,3.6,0,4.2-4.2h1.2L545.3,240.1z"/>
		<path class="st2" d="M551.6,236.4c0,1.8,0.1,2.5,2.5,2.5v1.1h-6.3v-1.1c2.4,0,2.4-0.8,2.4-2.5v-8.6c0-2.2-0.1-3.2-2.3-3.4v-1.1
			h4.9l9.6,11.4v-7.7c0-1.6-0.1-2.5-2.4-2.5v-1.1h6.3v1.1c-2.5,0-2.5,0.7-2.5,2.5v13.4h-1.1l-11.1-13.1V236.4z"/>
		<path class="st2" d="M573.1,224.5c-1.5,0-3.4,0-3.6,3.4h-1.2v-4.8H585v4.8h-1.2c-0.3-3.4-2.2-3.4-3.2-3.4h-2.1v12.4
			c0,1.3,0.2,2,2.5,2v1.1h-8.5v-1.1c2.2,0,2.5-0.7,2.5-2v-12.4H573.1z"/>
		<path class="st2" d="M596.5,222.8c7.6,0,9.5,5.7,9.5,8.8c0,4.5-3.2,8.8-9.4,8.8c-6.7,0-9.4-4.8-9.4-8.8
			C587.1,227.2,590.2,222.8,596.5,222.8z M596.6,238.9c5.2,0,5.4-5.6,5.4-7.3c0-3.4-1-7.2-5.4-7.2c-4.6,0-5.4,4-5.4,7.2
			C591.2,233.4,591.3,238.9,596.6,238.9z"/>
	</g>
	<g>
		<g>
			<g>
				<path class="st2" d="M262.9,113.5c0.8,0,1.5-0.1,2.3-0.2c0.7-0.1,1.3-0.4,1.9-0.7c0.5-0.3,1-0.8,1.3-1.4
					c0.3-0.6,0.5-1.4,0.5-2.5V71.6c0-1-0.2-1.9-0.5-2.5s-0.8-1.1-1.3-1.4c-0.5-0.3-1.2-0.6-1.9-0.7c-0.7-0.1-1.5-0.2-2.3-0.2v-1.3
					c3,0,5.3,0,6.9,0.1c1.6,0,3.1,0.1,4.3,0.1c0.6,0,1.3,0,2.1-0.1c0.8,0,1.7-0.1,2.5-0.1s1.8-0.1,2.7-0.1c0.9,0,1.7-0.1,2.5-0.1
					c2.2,0,4.4,0.2,6.7,0.6c2.2,0.4,4.3,1,6.1,1.9c1.8,0.9,3.3,2.2,4.4,3.8c1.1,1.6,1.7,3.7,1.7,6.2c0,2.9-0.6,5.2-1.7,7.1
					c-1.1,1.8-2.5,3.3-4.3,4.4c-1.8,1.1-3.8,1.9-6,2.3c-2.2,0.4-4.5,0.7-6.8,0.7c-0.9,0-1.7,0-2.4,0c-0.7,0-1.5-0.1-2.3-0.2v16.8
					c0,1,0.2,1.9,0.5,2.5c0.3,0.6,0.7,1.1,1.3,1.4c0.5,0.3,1.2,0.6,1.9,0.7c0.7,0.1,1.5,0.2,2.3,0.2v1.3c-1.5,0-2.7,0-3.8,0
					c-1.1,0-2-0.1-2.8-0.1c-0.8,0-1.6-0.1-2.4-0.1c-0.7,0-1.5,0-2.3,0c-0.8,0-1.6,0-2.3,0c-0.7,0-1.4,0.1-2.2,0.1
					c-0.8,0-1.7,0.1-2.7,0.1c-1,0-2.3,0-3.8,0V113.5z M279.3,89.8c1,0.1,2.1,0.2,3.2,0.2c1.8,0,3.3-0.3,4.5-0.8
					c1.2-0.6,2.1-1.4,2.8-2.4c0.7-1.1,1.2-2.3,1.4-3.8c0.3-1.5,0.4-3.1,0.4-4.9c0-1.4-0.1-2.7-0.4-4c-0.3-1.3-0.7-2.4-1.4-3.4
					s-1.6-1.8-2.7-2.4c-1.1-0.6-2.5-0.9-4.2-0.9c-1,0-1.8,0.2-2.5,0.5c-0.7,0.3-1.1,1.1-1.1,2.2V89.8z"/>
				<path class="st2" d="M326.6,95.4h-14l-4.6,12.5c-0.1,0.4-0.3,0.9-0.4,1.3c-0.1,0.4-0.1,0.8-0.1,1.1c0,0.7,0.1,1.2,0.4,1.7
					c0.3,0.4,0.6,0.7,1.1,1c0.4,0.2,0.9,0.4,1.5,0.4c0.5,0.1,1.1,0.1,1.6,0.1v1.3c-1,0-1.9,0-2.6,0c-0.7,0-1.3,0-1.9-0.1
					c-0.5,0-1,0-1.5-0.1c-0.4,0-0.9,0-1.4,0c-0.5,0-1,0-1.4,0c-0.4,0-0.8,0-1.2,0.1s-1,0-1.6,0.1c-0.6,0-1.5,0-2.4,0v-1.3
					c3.7,0,6.2-1.8,7.6-5.5L322,64.5h2.6l17.3,43.4c0.8,2.2,1.8,3.6,2.8,4.4c1.1,0.8,2.5,1.2,4.2,1.2v1.3c-1.5,0-2.7,0-3.8,0
					c-1.1,0-2,0-2.8-0.1c-0.8,0-1.6,0-2.3-0.1c-0.7,0-1.4,0-2.2,0c-0.7,0-1.4,0-2,0c-0.6,0-1.3,0-2.1,0.1c-0.8,0-1.7,0-2.7,0.1
					c-1,0-2.3,0-3.9,0v-1.3c0.6,0,1.2,0,1.7-0.1c0.6-0.1,1.1-0.2,1.5-0.4c0.4-0.2,0.8-0.5,1.1-0.9c0.3-0.4,0.4-0.9,0.4-1.6
					c0-0.5-0.1-1.1-0.2-1.6c-0.1-0.5-0.3-1-0.5-1.5L326.6,95.4z M313.5,93.4h12.4l-6.3-16.5L313.5,93.4z"/>
				<path class="st2" d="M380.7,115c-3.4,0-6.5-0.1-9.4-0.2c-2.9-0.1-5.2-0.2-6.9-0.2c-0.8,0-1.6,0-2.4,0c-0.7,0-1.5,0-2.4,0.1
					c-0.9,0-1.8,0-2.9,0.1c-1.1,0-2.3,0-3.8,0v-1.3c0.8,0,1.5-0.1,2.3-0.2c0.7-0.1,1.3-0.4,1.9-0.7c0.5-0.3,1-0.8,1.3-1.4
					c0.3-0.6,0.5-1.4,0.5-2.5V71.6c0-1-0.2-1.9-0.5-2.5s-0.8-1.1-1.3-1.4c-0.5-0.3-1.2-0.6-1.9-0.7c-0.7-0.1-1.5-0.2-2.3-0.2v-1.3
					c1.5,0,2.7,0,3.8,0c1,0,2,0.1,2.8,0.1c0.8,0,1.6,0.1,2.3,0.1c0.7,0,1.5,0,2.3,0c0.8,0,1.5,0,2.3,0c0.7,0,1.5-0.1,2.3-0.1
					c0.8,0,1.8-0.1,2.8-0.1c1,0,2.3,0,3.8,0v1.3c-0.8,0-1.5,0.1-2.3,0.2c-0.7,0.1-1.3,0.4-1.9,0.7c-0.5,0.3-1,0.8-1.3,1.4
					c-0.3,0.6-0.5,1.4-0.5,2.5v34.9c0,1.5,0.2,2.7,0.7,3.6c0.5,0.9,1.1,1.5,2,2c0.9,0.4,2,0.7,3.2,0.8c1.3,0.1,2.7,0.1,4.2,0.1
					c3.6,0,6.4-0.7,8.5-2.2c2.1-1.5,3.4-4.1,3.9-8h1.3l-0.7,12.1c-1.9,0-3.8,0.1-5.9,0.1C384.5,115,382.5,115,380.7,115z"/>
				<path class="st2" d="M424.5,95.4h-14l-4.6,12.5c-0.1,0.4-0.3,0.9-0.4,1.3c-0.1,0.4-0.1,0.8-0.1,1.1c0,0.7,0.1,1.2,0.4,1.7
					c0.3,0.4,0.6,0.7,1.1,1c0.4,0.2,0.9,0.4,1.5,0.4c0.5,0.1,1.1,0.1,1.6,0.1v1.3c-1,0-1.9,0-2.6,0c-0.7,0-1.3,0-1.9-0.1
					c-0.5,0-1,0-1.5-0.1c-0.4,0-0.9,0-1.4,0c-0.5,0-1,0-1.4,0c-0.4,0-0.8,0-1.2,0.1s-1,0-1.6,0.1c-0.6,0-1.5,0-2.4,0v-1.3
					c3.7,0,6.2-1.8,7.6-5.5L420,64.5h2.6l17.3,43.4c0.8,2.2,1.8,3.6,2.8,4.4c1.1,0.8,2.5,1.2,4.2,1.2v1.3c-1.5,0-2.7,0-3.8,0
					c-1.1,0-2,0-2.8-0.1c-0.8,0-1.6,0-2.3-0.1c-0.7,0-1.4,0-2.2,0c-0.7,0-1.4,0-2,0c-0.6,0-1.3,0-2.1,0.1c-0.8,0-1.7,0-2.7,0.1
					c-1,0-2.3,0-3.9,0v-1.3c0.6,0,1.2,0,1.7-0.1c0.6-0.1,1.1-0.2,1.5-0.4c0.4-0.2,0.8-0.5,1.1-0.9c0.3-0.4,0.4-0.9,0.4-1.6
					c0-0.5-0.1-1.1-0.2-1.6c-0.1-0.5-0.3-1-0.5-1.5L424.5,95.4z M411.4,93.4h12.4l-6.3-16.5L411.4,93.4z"/>
				<path class="st2" d="M488.7,66.5c0,1.2,0,2.3,0,3.4c0,1.1,0,2.2,0,3.2c0,1.2,0,2.5,0.1,4.1c0.1,1.5,0.1,3,0.1,4.3h-1.5
					c-0.3-4.5-1.7-8.1-4.2-10.8c-2.5-2.7-6-4-10.4-4c-2.1,0-4.1,0.5-6,1.5c-1.9,1-3.6,2.5-5,4.5c-1.5,2-2.6,4.5-3.4,7.6
					c-0.8,3-1.3,6.5-1.3,10.6c0,2.4,0.2,5,0.6,7.6c0.4,2.7,1.2,5.1,2.3,7.4c1.1,2.3,2.7,4.1,4.6,5.6c1.9,1.5,4.4,2.2,7.5,2.2
					c5,0,8.9-1.5,11.6-4.5c2.7-3,4.2-7,4.4-12h1.5c0,0.7,0,1.5,0,2.4c0,0.9,0,1.7-0.1,2.5c0,0.8,0,1.6-0.1,2.4c0,0.7,0,1.3,0,1.8
					c0,0.5,0,1,0,1.4c0,0.4,0,0.9,0,1.5c0,0.5,0,1.2,0.1,1.9c0,0.7,0.1,1.7,0.1,2.7h-1.3l-1.7-2.9c-0.4,0.3-1.1,0.8-2,1.3
					c-0.9,0.5-1.9,1.1-3.1,1.6c-1.2,0.5-2.6,1-4.2,1.3c-1.6,0.4-3.4,0.6-5.3,0.6c-3.7,0-7.1-0.6-10.3-1.7c-3.2-1.1-6-2.7-8.3-4.9
					c-2.4-2.1-4.2-4.8-5.6-8c-1.4-3.2-2.1-6.9-2.1-11.2c0-3.5,0.7-6.8,2.1-9.9c1.4-3.1,3.3-5.8,5.6-8.1c2.4-2.3,5.2-4.1,8.4-5.5
					c3.2-1.4,6.6-2,10.3-2c2.7,0,5.1,0.4,7.5,1.1c2.3,0.8,4.5,1.9,6.6,3.3l1.3-2.5H488.7z"/>
				<path class="st2" d="M495.3,65.5c1.5,0,2.7,0,3.7,0c1,0,1.9,0.1,2.7,0.1c0.8,0,1.5,0.1,2.1,0.1c0.7,0,1.4,0,2.3,0
					c0.8,0,1.6,0,2.3,0c0.8,0,1.6-0.1,2.4-0.1c0.9,0,1.8-0.1,2.9-0.1c1.1,0,2.4,0,3.8,0v1.3c-0.8,0-1.5,0.1-2.3,0.2
					c-0.7,0.1-1.3,0.4-1.9,0.7c-0.5,0.3-1,0.8-1.3,1.4c-0.3,0.6-0.5,1.4-0.5,2.5v37.1c0,1,0.2,1.9,0.5,2.5c0.3,0.6,0.7,1.1,1.3,1.4
					c0.5,0.3,1.2,0.6,1.9,0.7c0.7,0.1,1.5,0.2,2.3,0.2v1.3c-1.5,0-2.8,0-3.8,0c-1.1,0-2.1-0.1-2.9-0.1c-0.9,0-1.7-0.1-2.4-0.1
					c-0.8,0-1.5,0-2.3,0c-0.8,0-1.6,0-2.3,0c-0.7,0-1.4,0.1-2.1,0.1c-0.8,0-1.7,0.1-2.7,0.1c-1,0-2.3,0-3.7,0v-1.3
					c0.8,0,1.5-0.1,2.3-0.2c0.7-0.1,1.3-0.4,1.9-0.7c0.5-0.3,1-0.8,1.3-1.4c0.3-0.6,0.5-1.4,0.5-2.5V71.6c0-1-0.2-1.9-0.5-2.5
					c-0.3-0.6-0.8-1.1-1.3-1.4c-0.5-0.3-1.2-0.6-1.9-0.7c-0.7-0.1-1.5-0.2-2.3-0.2V65.5z"/>
				<path class="st2" d="M548.4,64.6c3.5,0,6.9,0.6,10.1,1.8c3.2,1.2,6,2.9,8.5,5.2s4.4,4.9,5.8,8.1c1.5,3.2,2.2,6.7,2.2,10.6
					c0,4-0.7,7.6-2.2,10.7c-1.5,3.2-3.4,5.8-5.8,8c-2.4,2.2-5.3,3.9-8.5,5.1c-3.2,1.2-6.6,1.8-10.1,1.8c-3.8,0-7.3-0.6-10.6-1.8
					c-3.2-1.2-6.1-2.9-8.5-5.2c-2.4-2.2-4.3-4.9-5.6-8.1c-1.4-3.2-2.1-6.7-2.1-10.7c0-3.7,0.7-7.2,2-10.3c1.4-3.1,3.2-5.8,5.6-8.1
					c2.4-2.3,5.2-4,8.5-5.3C541,65.2,544.6,64.6,548.4,64.6z M548.4,66.6c-2.6,0-4.9,0.7-6.8,2c-1.9,1.3-3.5,3.1-4.8,5.3
					c-1.3,2.2-2.2,4.7-2.8,7.6c-0.6,2.9-0.9,5.8-0.9,8.8c0,3.3,0.3,6.4,0.9,9.2c0.6,2.9,1.6,5.3,2.8,7.4c1.3,2.1,2.8,3.8,4.8,5
					c1.9,1.2,4.2,1.8,6.8,1.8c2.5,0,4.7-0.6,6.6-1.8c1.9-1.2,3.5-2.9,4.7-5c1.3-2.1,2.2-4.6,2.8-7.4s1-5.9,1-9.2c0-3.1-0.3-6.2-1-9
					c-0.6-2.9-1.6-5.4-2.8-7.6c-1.3-2.2-2.8-3.9-4.7-5.2C553.1,67.3,550.9,66.6,548.4,66.6z"/>
			</g>
			<g>
				<path class="st2" d="M289.5,182.4c-3.3,0-6.3-0.1-9-0.2c-2.7-0.1-5-0.2-6.7-0.2c-0.8,0-1.6,0-2.3,0c-0.7,0-1.5,0-2.3,0.1
					c-0.8,0-1.7,0-2.8,0.1c-1,0-2.2,0-3.7,0v-1.3c0.8,0,1.5-0.1,2.2-0.2c0.7-0.1,1.3-0.3,1.8-0.7c0.5-0.3,0.9-0.8,1.2-1.4
					c0.3-0.6,0.5-1.4,0.5-2.4v-35.7c0-1-0.2-1.8-0.5-2.4c-0.3-0.6-0.7-1.1-1.2-1.4c-0.5-0.3-1.1-0.6-1.8-0.7
					c-0.7-0.1-1.4-0.2-2.2-0.2v-1.3c1.4,0,2.6,0,3.6,0c1,0,1.9,0.1,2.7,0.1c0.8,0,1.5,0.1,2.2,0.1c0.7,0,1.4,0,2.2,0
					c0.8,0,1.5,0,2.2,0c0.7,0,1.4-0.1,2.2-0.1c0.8,0,1.7-0.1,2.7-0.1c1,0,2.2,0,3.6,0v1.3c-0.8,0-1.5,0.1-2.2,0.2
					c-0.7,0.1-1.3,0.3-1.8,0.7c-0.5,0.3-0.9,0.8-1.2,1.4c-0.3,0.6-0.5,1.4-0.5,2.4v33.5c0,1.5,0.2,2.6,0.7,3.4
					c0.4,0.8,1.1,1.5,2,1.9c0.9,0.4,1.9,0.7,3.1,0.8c1.2,0.1,2.6,0.1,4.1,0.1c3.5,0,6.2-0.7,8.2-2.1c2-1.4,3.2-4,3.8-7.7h1.3
					l-0.7,11.6c-1.8,0-3.7,0.1-5.7,0.1C293.2,182.3,291.3,182.4,289.5,182.4z"/>
				<path class="st2" d="M305.7,134.8c1.4,0,2.6,0,3.6,0c1,0,1.8,0.1,2.6,0.1c0.7,0,1.4,0.1,2.1,0.1c0.6,0,1.4,0,2.2,0
					c0.8,0,1.5,0,2.2,0c0.7,0,1.5-0.1,2.3-0.1c0.8,0,1.8-0.1,2.8-0.1c1,0,2.3,0,3.7,0v1.3c-0.8,0-1.5,0.1-2.2,0.2
					c-0.7,0.1-1.3,0.3-1.8,0.7c-0.5,0.3-0.9,0.8-1.2,1.4c-0.3,0.6-0.5,1.4-0.5,2.4v35.7c0,1,0.2,1.8,0.5,2.4
					c0.3,0.6,0.7,1.1,1.2,1.4c0.5,0.3,1.1,0.6,1.8,0.7c0.7,0.1,1.4,0.2,2.2,0.2v1.3c-1.4,0-2.6,0-3.7,0c-1,0-2-0.1-2.8-0.1
					c-0.8,0-1.6-0.1-2.3-0.1c-0.7,0-1.5,0-2.2,0c-0.8,0-1.5,0-2.2,0c-0.6,0-1.3,0.1-2.1,0.1c-0.7,0-1.6,0.1-2.6,0.1
					c-1,0-2.2,0-3.6,0v-1.3c0.8,0,1.5-0.1,2.2-0.2c0.7-0.1,1.3-0.3,1.8-0.7c0.5-0.3,0.9-0.8,1.2-1.4c0.3-0.6,0.5-1.4,0.5-2.4v-35.7
					c0-1-0.2-1.8-0.5-2.4s-0.7-1.1-1.2-1.4c-0.5-0.3-1.1-0.6-1.8-0.7c-0.7-0.1-1.4-0.2-2.2-0.2V134.8z"/>
				<path class="st2" d="M332.3,134.8c1.4,0,2.6,0,3.5,0c0.9,0,1.7,0,2.3,0.1c0.7,0,1.3,0,1.8,0.1c0.6,0,1.2,0,2,0
					c0.8,0,1.6,0,2.7,0c1,0,2-0.1,3.1-0.1c1,0,2-0.1,2.9-0.1c0.9,0,1.7,0,2.2,0c2.1,0,4.2,0.2,6.2,0.5c2.1,0.3,4,0.9,5.6,1.8
					c1.7,0.9,3,2,4.1,3.5c1,1.5,1.6,3.3,1.6,5.6c0,1.5-0.3,2.9-1,4.1c-0.6,1.2-1.5,2.3-2.5,3.2c-1,0.9-2.3,1.6-3.7,2.2
					c-1.4,0.6-2.8,1-4.3,1.2v0.1c1.5,0.1,3.1,0.4,4.8,0.9c1.7,0.5,3.3,1.2,4.8,2.2c1.5,1,2.7,2.2,3.7,3.8c1,1.5,1.5,3.3,1.5,5.4
					c0,2.3-0.4,4.3-1.3,6c-0.9,1.7-2.2,3-3.8,4.1c-1.6,1.1-3.5,1.8-5.8,2.3c-2.2,0.5-4.7,0.7-7.5,0.7c-1.7,0-3.8-0.1-6.1-0.2
					c-2.3-0.1-4.4-0.2-6.4-0.2c-0.9,0-1.6,0-2.3,0c-0.7,0-1.4,0-2.1,0.1c-0.7,0-1.6,0-2.6,0.1c-1,0-2.2,0-3.6,0v-1.3
					c0.8,0,1.5-0.1,2.2-0.2c0.7-0.1,1.3-0.3,1.8-0.7c0.5-0.3,0.9-0.8,1.2-1.4c0.3-0.6,0.5-1.4,0.5-2.4v-35.7c0-1-0.2-1.8-0.5-2.4
					s-0.7-1.1-1.2-1.4c-0.5-0.3-1.1-0.6-1.8-0.7c-0.7-0.1-1.4-0.2-2.2-0.2V134.8z M348.1,156.4h3.8c1.7,0,3-0.3,4.1-0.9
					c1.1-0.6,1.9-1.4,2.6-2.3c0.6-1,1.1-2.1,1.3-3.3c0.2-1.2,0.4-2.4,0.4-3.7c0-1.3-0.2-2.5-0.5-3.7c-0.3-1.2-0.9-2.2-1.6-3
					c-0.7-0.9-1.7-1.5-2.8-2.1c-1.1-0.5-2.4-0.8-4-0.8c-0.9,0-1.7,0.1-2.3,0.3c-0.6,0.2-1,0.9-1,2V156.4z M348.1,173
					c0,1.2,0.1,2.3,0.2,3.2c0.1,0.9,0.4,1.7,0.9,2.3c0.4,0.6,1.1,1.1,2,1.4c0.9,0.3,2.1,0.5,3.6,0.5c1.4,0,2.6-0.3,3.7-0.8
					c1-0.5,1.9-1.3,2.6-2.2c0.7-0.9,1.2-2,1.5-3.2c0.3-1.2,0.5-2.6,0.5-4c0-4-0.8-6.9-2.5-8.9c-1.7-1.9-4.3-2.9-7.9-2.9h-4.5V173z"
					/>
				<path class="st2" d="M397.4,156.6c2.1,0,3.7-0.5,4.6-1.6c0.9-1.1,1.4-2.6,1.4-4.5h1.3c0,1.1,0,2,0,2.8c0,0.8,0,1.4-0.1,2
					c0,0.5,0,1-0.1,1.4c0,0.4,0,0.7,0,1.1c0,0.4,0,0.7,0,1.1c0,0.4,0,0.8,0.1,1.3c0,0.5,0,1.1,0.1,1.9c0,0.7,0,1.6,0,2.7h-1.3
					c0-1.8-0.5-3.3-1.4-4.4c-0.9-1.1-2.4-1.6-4.6-1.6h-4.1v14.3c0,1.7,0.1,3.1,0.4,4.1c0.2,1,0.7,1.8,1.4,2.3c0.7,0.5,1.6,0.8,2.8,1
					c1.2,0.1,2.8,0.2,4.7,0.2c1.7,0,3.3-0.1,4.7-0.3c1.4-0.2,2.7-0.6,3.8-1.3c1.1-0.7,2-1.6,2.7-2.9c0.7-1.2,1.2-2.9,1.3-5h1.3
					l-0.6,11.3c-2.1,0-4.1,0.1-5.8,0.1c-1.7,0-3.6,0-5.5,0c-4,0-7.4-0.1-10.1-0.2s-4.8-0.2-6.3-0.2c-0.8,0-1.5,0-2.2,0
					c-0.7,0-1.4,0-2.2,0.1c-0.8,0-1.7,0-2.7,0.1c-1,0-2.2,0-3.7,0v-1.3c0.8,0,1.5-0.1,2.2-0.2c0.7-0.1,1.3-0.3,1.8-0.7
					c0.5-0.3,0.9-0.8,1.2-1.4c0.3-0.6,0.5-1.4,0.5-2.4v-35.7c0-1-0.2-1.8-0.5-2.4s-0.7-1.1-1.2-1.4c-0.5-0.3-1.1-0.6-1.8-0.7
					c-0.7-0.1-1.4-0.2-2.2-0.2v-1.3c1.4,0,2.6,0,3.6,0c1,0,1.9,0,2.6,0.1c0.8,0,1.5,0,2.1,0.1c0.7,0,1.4,0,2.1,0
					c1.6,0,3.7-0.1,6.2-0.2c2.5-0.1,5.2-0.2,8-0.2c1.8,0,3.6,0,5.1,0.1c1.6,0,3.3,0.1,5.2,0.1l0.4,10.6h-1.3
					c-0.1-1.8-0.5-3.2-1.1-4.4c-0.6-1.1-1.4-2.1-2.4-2.7c-1-0.7-2.2-1.1-3.5-1.3c-1.3-0.2-2.8-0.4-4.5-0.4c-0.8,0-1.7,0-2.8,0.1
					c-1.1,0.1-1.9,0.2-2.6,0.2c-1.1,0.1-1.6,0.8-1.6,1.9v17.8H397.4z"/>
				<path class="st2" d="M421.1,134.8c1.4,0,2.6,0,3.7,0c1,0,2,0,2.8,0c0.8,0,1.6,0,2.3,0c0.7,0,1.4,0,2.2,0c1.2,0,2.8-0.1,4.6-0.2
					c1.9-0.1,3.8-0.2,5.8-0.2c1.8,0,3.8,0.1,5.9,0.4c2.1,0.3,4,0.9,5.8,1.7s3.2,2.1,4.4,3.7c1.2,1.6,1.7,3.7,1.7,6.3
					c0,1.7-0.3,3.2-1,4.5c-0.6,1.4-1.5,2.6-2.6,3.6c-1.1,1-2.3,1.8-3.7,2.4c-1.4,0.6-2.9,1-4.5,1.2c0.8,1,1.8,2.3,3,3.9
					c1.2,1.6,2.5,3.2,3.8,4.9c1.3,1.7,2.7,3.5,4.1,5.2c1.4,1.8,2.8,3.4,4,4.9c1.1,1.2,2.1,2.1,3.1,2.7c1,0.6,2,0.9,3.2,0.9v1.3
					c-1,0-1.9,0-2.6,0c-0.7,0-1.2,0-1.7-0.1c-0.5,0-0.9,0-1.3-0.1c-0.4,0-0.9,0-1.5,0c-1.2,0-2.4,0-3.6,0.1
					c-1.2,0.1-2.5,0.1-3.9,0.1c-1.5-1.8-2.8-3.6-3.9-5.2c-1.2-1.6-2.3-3.2-3.4-4.7c-1.1-1.5-2.2-3.1-3.4-4.7
					c-1.1-1.6-2.4-3.3-3.8-5.1c-0.7-0.9-1.3-1.5-1.7-1.8c-0.4-0.3-1-0.4-1.8-0.4h-0.3v16c0,1,0.2,1.8,0.5,2.4
					c0.3,0.6,0.7,1.1,1.2,1.4c0.5,0.3,1.1,0.6,1.8,0.7c0.7,0.1,1.4,0.2,2.2,0.2v1.3c-1.4,0-2.6,0-3.6,0c-1,0-1.8-0.1-2.6-0.1
					c-0.7,0-1.4-0.1-2.1-0.1c-0.7,0-1.4,0-2.1,0c-0.8,0-1.6,0-2.3,0c-0.7,0-1.5,0.1-2.3,0.1c-0.8,0-1.8,0.1-2.8,0.1
					c-1,0-2.3,0-3.7,0v-1.3c0.8,0,1.5-0.1,2.2-0.2c0.7-0.1,1.3-0.3,1.8-0.7c0.5-0.3,0.9-0.8,1.2-1.4c0.3-0.6,0.5-1.4,0.5-2.4v-35.7
					c0-1-0.2-1.8-0.5-2.4s-0.7-1.1-1.2-1.4c-0.5-0.3-1.1-0.6-1.8-0.7c-0.7-0.1-1.4-0.2-2.2-0.2V134.8z M436.8,158.4h3.2
					c1.8,0,3.3-0.3,4.5-0.9s2.2-1.4,2.9-2.4c0.7-1,1.2-2.3,1.5-3.8c0.3-1.5,0.5-3.1,0.5-4.9c0-1.3-0.2-2.5-0.5-3.7
					c-0.3-1.2-0.8-2.2-1.5-3.2c-0.7-0.9-1.6-1.7-2.6-2.2c-1.1-0.6-2.4-0.9-3.9-0.9c-0.4,0-0.8,0-1.3,0c-0.5,0-0.9,0.1-1.3,0.3
					c-0.4,0.2-0.7,0.5-1,0.8c-0.3,0.4-0.4,0.8-0.4,1.5V158.4z"/>
				<path class="st2" d="M480.8,180.8c0.7-0.1,1.3-0.3,1.8-0.7c0.5-0.3,0.9-0.8,1.2-1.4c0.3-0.6,0.5-1.4,0.5-2.4v-39.5
					c-2.4-0.1-4-0.2-4.9-0.2c-0.9,0-1.4,0-1.7,0c-2.8,0-4.9,1-6.3,2.7c-1.4,1.8-2.2,4-2.4,6.6h-1.3l0.4-11.3c1.1,0,2.1-0.1,3.2-0.1
					c1,0,1.9,0,2.7,0c1.9,0,3.6,0,5,0c1.5,0,2.8,0,4,0.1c1.2,0,2.2,0,3.2,0.1s1.9,0,2.8,0c0.9,0,1.8,0,2.8,0c1,0,2.1,0,3.3-0.1
					c1.2,0,2.6,0,4-0.1c1.5,0,3.2,0,5.2,0c0.9,0,1.8,0,2.8,0c1,0,2.1,0,3.2,0.1l0.5,11.3h-1.3c-0.1-1.2-0.3-2.3-0.7-3.4
					c-0.4-1.1-0.9-2.1-1.7-3c-0.7-0.9-1.6-1.6-2.7-2.2c-1.1-0.6-2.3-0.8-3.7-0.8c-0.1,0-0.3,0-0.5,0c-0.2,0-0.5,0-0.9,0
					c-0.4,0-1.1,0.1-1.9,0.1c-0.8,0-1.9,0.1-3.2,0.1v39.5c0,1,0.2,1.8,0.5,2.4c0.3,0.6,0.7,1,1.2,1.4c0.5,0.3,1.1,0.6,1.8,0.7
					c0.7,0.1,1.4,0.2,2.2,0.2v1.3c-1.4,0-2.6,0-3.7,0c-1,0-1.9-0.1-2.7-0.1c-0.8,0-1.5-0.1-2.2-0.1c-0.7,0-1.4,0-2.2,0
					c-0.8,0-1.5,0-2.2,0c-0.7,0-1.4,0.1-2.2,0.1c-0.8,0-1.7,0.1-2.7,0.1c-1,0-2.2,0-3.6,0v-1.3C479.4,180.9,480.1,180.9,480.8,180.8
					z"/>
				<path class="st2" d="M535.8,163.6h-13.4l-4.4,12c-0.1,0.4-0.3,0.8-0.4,1.2c-0.1,0.4-0.1,0.8-0.1,1.1c0,0.7,0.1,1.2,0.4,1.6
					c0.3,0.4,0.6,0.7,1,0.9c0.4,0.2,0.9,0.4,1.4,0.4c0.5,0.1,1,0.1,1.6,0.1v1.3c-1,0-1.8,0-2.5,0c-0.7,0-1.3,0-1.8-0.1
					c-0.5,0-1,0-1.4-0.1c-0.4,0-0.9,0-1.3,0c-0.5,0-1,0-1.3,0c-0.4,0-0.7,0-1.2,0.1c-0.4,0-0.9,0-1.6,0.1c-0.6,0-1.4,0-2.3,0v-1.3
					c3.5,0,6-1.8,7.3-5.3l15.7-41.8h2.5l16.6,41.7c0.8,2.1,1.7,3.5,2.7,4.3c1,0.8,2.4,1.1,4.1,1.1v1.3c-1.4,0-2.6,0-3.7,0
					c-1,0-1.9,0-2.7-0.1c-0.8,0-1.5,0-2.2-0.1c-0.7,0-1.4,0-2.1,0c-0.7,0-1.4,0-2,0c-0.6,0-1.3,0-2,0.1c-0.8,0-1.6,0-2.6,0.1
					c-1,0-2.2,0-3.8,0v-1.3c0.6,0,1.1,0,1.7-0.1c0.5-0.1,1-0.2,1.5-0.4c0.4-0.2,0.8-0.5,1.1-0.9c0.3-0.4,0.4-0.9,0.4-1.5
					c0-0.5-0.1-1-0.2-1.5c-0.1-0.5-0.3-1-0.5-1.5L535.8,163.6z M523.2,161.6h11.9l-6-15.9L523.2,161.6z"/>
				<path class="st2" d="M561.1,134.8c1.4,0,2.6,0,3.7,0c1,0,1.9,0,2.7,0.1c0.8,0,1.5,0,2.2,0.1c0.7,0,1.4,0,2.2,0
					c0.8,0,1.6,0,2.6-0.1c0.9,0,1.9-0.1,2.9-0.1c1,0,2-0.1,3-0.1c1,0,1.9-0.1,2.8-0.1c3.6,0,6.9,0.5,10,1.6c3,1.1,5.7,2.6,7.9,4.6
					c2.2,2,4,4.5,5.2,7.4c1.3,2.9,1.9,6.3,1.9,10c0,7.8-2.1,13.8-6.2,17.9c-4.1,4.2-10.2,6.2-18.1,6.2c-0.9,0-1.8,0-2.8-0.1
					c-1,0-2.1-0.1-3.2-0.1c-1.1,0-2.1-0.1-3.2-0.1c-1,0-2-0.1-2.8-0.1c-0.8,0-1.5,0-2.2,0c-0.7,0-1.4,0-2.2,0.1
					c-0.8,0-1.7,0-2.7,0.1c-1,0-2.3,0-3.7,0v-1.3c0.8,0,1.5-0.1,2.2-0.2c0.7-0.1,1.3-0.3,1.8-0.7c0.5-0.3,0.9-0.8,1.2-1.4
					c0.3-0.6,0.5-1.4,0.5-2.4v-35.7c0-1-0.2-1.8-0.5-2.4s-0.7-1.1-1.2-1.4c-0.5-0.3-1.1-0.6-1.8-0.7c-0.7-0.1-1.4-0.2-2.2-0.2V134.8
					z M576.8,172.9c0,1.3,0.1,2.5,0.2,3.4c0.1,0.9,0.4,1.7,0.8,2.3c0.4,0.6,1,1,1.8,1.3s2,0.4,3.4,0.4c2.6,0,4.8-0.5,6.6-1.6
					c1.8-1.1,3.3-2.6,4.4-4.5c1.1-1.9,2-4.2,2.4-6.8c0.5-2.6,0.7-5.4,0.7-8.5c0-2.9-0.2-5.7-0.7-8.4c-0.5-2.7-1.3-5.1-2.5-7.2
					c-1.2-2.1-2.7-3.7-4.5-5c-1.9-1.3-4.2-1.9-6.9-1.9c-0.7,0-1.2,0-1.7,0c-0.5,0-1.1,0.1-2.1,0.2c-0.6,0.1-1,0.3-1.4,0.6
					c-0.4,0.3-0.5,0.9-0.5,1.8V172.9z"/>
			</g>
		</g>
	</g>
	<g>
		<g>
			<g>
				<g>
					<path class="st2" d="M14.9,239.8v-4.1c11.4,0,20.2-3.2,26.4-9.6c3.5-3.6,5.9-8.2,7.2-13.8c1.3-5.6,1.9-14.1,1.9-25.6V62
						c0-12-0.7-20.8-2.1-26.5c-1.4-5.7-4-10.3-7.9-14c-3.2-2.9-6.7-5.1-10.6-6.4c-3.9-1.4-8.9-2.1-15-2.4V8.9H123v3.9
						c-6.2,0.3-11.3,1.2-15.2,2.5c-3.9,1.4-7.4,3.5-10.5,6.4c-3.8,3.7-6.4,8.4-7.8,14c-1.4,5.6-2,14.4-2,26.2v97.6
						c0,15,0.4,26.2,1.2,33.5c0.8,7.3,2.3,13.3,4.6,17.9c3.9,8.1,9.8,14.1,17.6,17.8c7.8,3.8,18.1,5.7,31,5.7
						c13.4,0,19.2-1.6,27.3-4.9c9.3-3.9,12.6-8.6,18.5-16c3.9-5.1,7.1-11.7,9.7-18.2c2.5-6.4,4.9-14.9,7-25.4l4.1,0.3l-0.1,69.4
						H14.9z"/>
				</g>
			</g>
		</g>
		<g>
			<path class="st3" d="M209.8,65.7c0-36.7-28.7-56.8-72.2-56.8h-4.2v1.9V11v1.9c4.3,0.2,8,0.6,11.1,1.4
				c26.7,6.5,40.9,25.1,41.2,51.5c-0.6,25-21.9,56.7-73.6,64.3L55,139.4c-29.4,5.4-39.8,14.1-39.8,25.9c0,0.1,0,0.1,0,0.2
				c0,0.1,0,0.3,0,0.4c0,0.2,0,0.3,0,0.5c0,0.3,0,0.5,0,0.8c0,0.1,0,0.1,0,0.2c0,0.1,0,0.3,0,0.4c0,13.8,14,24.4,36.5,28.1l0,0
				c6.1,0.9,13.1,1.5,20.5,1.5c7.5,0,14.5-0.5,20.6-1.5c0,0,0,0,0,0c11.6-1.9,20.5-6.3,26.7-11.5l-1.7-1.7c-6.9,3.9-16,6.3-25.6,7.4
				c-4.6,0.5-9.6,1.3-14.9,1.3c-8.4,0-16.2-1.1-22.6-3c0,0,0,0,0,0c-0.1,0-0.1,0-0.2-0.1c-0.5-0.1-1-0.3-1.4-0.5
				c-12.3-4.1-19-11.2-19.6-20.4c-0.1-7.6,7.6-16.1,21.5-20l34.6-6l28.5-4.7C187.3,127.5,209.8,97.8,209.8,65.7
				C209.8,65.7,209.8,65.8,209.8,65.7C209.8,65.7,209.8,65.7,209.8,65.7z M209.8,65.7C209.8,65.6,209.8,65.6,209.8,65.7
				C209.8,65.8,209.8,65.9,209.8,65.7z"/>
		</g>
		<g>
			<g>
				<path class="st2" d="M50.4,172.5v-40l37-13v40.2L50.4,172.5z"/>
			</g>
		</g>
	</g>
</g>
</svg>
